<svg xmlns="http://www.w3.org/2000/svg" version="1.1" xmlns:xlink="http://www.w3.org/1999/xlink" xmlns:svgjs="http://svgjs.dev/svgjs" width="1500" height="1500" viewBox="0 0 1500 1500"><rect width="1500" height="1500" fill="#000000"></rect><g transform="matrix(0.6666666666666666,0,0,0.6666666666666666,249.39393939393938,438.5856950067477)"><svg viewBox="0 0 396 247" data-background-color="#000000" preserveAspectRatio="xMidYMid meet" height="935" width="1500" xmlns="http://www.w3.org/2000/svg" xmlns:xlink="http://www.w3.org/1999/xlink"><g id="tight-bounds" transform="matrix(1,0,0,1,0.2400000000000091,-0.09999999999999432)"><svg viewBox="0 0 395.52 247.2" height="247.2" width="395.52"><rect width="395.52" height="247.2" fill="url(#2b9b40af-c1f4-4ba5-bf73-c3f13fd477cb)" mask="url(#d19e7308-d762-4862-99be-4094c874fb8b)" data-fill-palette-color="tertiary"></rect><g><svg></svg></g><g><svg viewBox="0 0 395.52 247.2" height="247.2" width="395.52"><g transform="matrix(1,0,0,1,75.54432,96.97519166470468)"><svg viewBox="0 0 244.43135999999998 53.24961667059062" height="53.24961667059062" width="244.43135999999998"><g><svg viewBox="0 0 244.43135999999998 53.24961667059062" height="53.24961667059062" width="244.43135999999998"><g><svg viewBox="0 0 244.43135999999998 53.24961667059062" height="53.24961667059062" width="244.43135999999998"><g><svg viewBox="0 0 244.43135999999998 53.24961667059062" height="53.24961667059062" width="244.43135999999998"><g id="textblocktransform"><svg viewBox="0 0 244.43135999999998 53.24961667059062" height="53.24961667059062" width="244.43135999999998" id="textblock"><g><svg viewBox="0 0 244.43135999999998 28.720298774478835" height="28.720298774478835" width="244.43135999999998"><g transform="matrix(1,0,0,1,0,0)"><svg width="244.43135999999998" viewBox="-5.52 -36.18 309.15999999999997 36.33" height="28.720298774478835" data-palette-color="url(#f9ee606c-f850-4014-b262-08b428dc1fde)"></svg></g></svg></g><g transform="matrix(1,0,0,1,0,35.5004720279627)"><svg viewBox="0 0 244.43135999999998 17.74914464262792" height="17.74914464262792" width="244.43135999999998"><g transform="matrix(1,0,0,1,0,0)"><svg width="244.43135999999998" viewBox="1.95 -34.2 486.82 35.35" height="17.74914464262792" data-palette-color="url(#bc149d6e-7490-457d-8d22-12fd0e15b87b)"></svg></g></svg></g></svg></g></svg></g></svg></g></svg></g></svg></g><path d="M199.424 90.975L199.424 26.611 393.402 26.611 393.402 220.589 199.424 220.589 199.424 156.225 202.014 156.225 202.014 217.999 390.812 217.999 390.812 29.201 202.014 29.201 202.014 90.975Z" fill="url(#2b9b40af-c1f4-4ba5-bf73-c3f13fd477cb)" stroke="transparent" data-fill-palette-color="tertiary"></path></svg></g><defs></defs><mask id="9104d856-3b99-4e1f-983d-c1dcb7a67f6f"><g id="SvgjsG1958"><svg viewBox="0 0 395.52 247.2" height="247.2" width="395.52"><g><svg></svg></g><g><svg viewBox="0 0 395.52 247.2" height="247.2" width="395.52"><g transform="matrix(1,0,0,1,75.54432,96.97519166470468)"><svg viewBox="0 0 244.43135999999998 53.24961667059062" height="53.24961667059062" width="244.43135999999998"><g><svg viewBox="0 0 244.43135999999998 53.24961667059062" height="53.24961667059062" width="244.43135999999998"><g><svg viewBox="0 0 244.43135999999998 53.24961667059062" height="53.24961667059062" width="244.43135999999998"><g><svg viewBox="0 0 244.43135999999998 53.24961667059062" height="53.24961667059062" width="244.43135999999998"><g id="SvgjsG1957"><svg viewBox="0 0 244.43135999999998 53.24961667059062" height="53.24961667059062" width="244.43135999999998" id="SvgjsSvg1956"><g><svg viewBox="0 0 244.43135999999998 28.720298774478835" height="28.720298774478835" width="244.43135999999998"><g transform="matrix(1,0,0,1,0,0)"><svg width="244.43135999999998" viewBox="-5.52 -36.18 309.15999999999997 36.33" height="28.720298774478835" data-palette-color="url(#f9ee606c-f850-4014-b262-08b428dc1fde)"><path d="M35.45-30.96Q35.25-31.05 34.16-31.1 33.06-31.15 31.52-31.18 29.98-31.2 28.2-31.23 26.42-31.25 24.83-31.25 23.24-31.25 22.05-31.25 20.85-31.25 20.46-31.25L20.46-31.25Q20.07-27.59 20.04-23.93 20.02-20.26 20.02-16.6L20.02-16.6Q20.02-14.26 19.97-11.96 19.92-9.67 19.92-7.32L19.92-7.32Q19.92-6.93 19.92-5.83 19.92-4.74 19.97-3.52 20.02-2.29 20.19-1.27 20.36-0.24 20.65 0L20.65 0 12.11 0Q12.45-0.29 12.62-1.88 12.79-3.47 12.92-5.71 13.04-7.96 13.06-10.6 13.09-13.23 13.09-15.63 13.09-18.02 13.06-19.85 13.04-21.68 13.04-22.41L13.04-22.41Q13.04-24.61 13.01-26.81 12.99-29 12.84-31.2L12.84-31.2Q9.67-31.2 6.54-31.18 3.42-31.15 0.24-31.1L0.24-31.1Q-0.24-31.1-1-31.08-1.76-31.05-2.59-31.05-3.42-31.05-4.17-31.01-4.93-30.96-5.37-30.86L-5.37-30.86-5.52-35.94 35.5-36.18 35.45-30.96ZM39.26 0Q39.55-0.29 39.74-1.88 39.94-3.47 40.06-5.71 40.18-7.96 40.21-10.6 40.23-13.23 40.23-15.63 40.23-18.02 40.21-19.85 40.18-21.68 40.18-22.41L40.18-22.41Q40.18-22.85 40.21-23.97 40.23-25.1 40.21-26.56 40.18-28.03 40.11-29.64 40.04-31.25 39.84-32.62 39.65-33.98 39.3-34.91 38.96-35.84 38.47-35.99L38.47-35.99 49.41-35.99Q48.78-35.99 48.36-34.86 47.95-33.74 47.7-32.03 47.46-30.32 47.34-28.25 47.21-26.17 47.17-24.27 47.12-22.36 47.12-20.87 47.12-19.38 47.12-18.85L47.12-18.85Q47.12-15.97 47.09-13.11 47.07-10.25 47.07-7.32L47.07-7.32Q47.07-6.93 47.07-5.81 47.07-4.69 47.12-3.49 47.17-2.29 47.34-1.27 47.51-0.24 47.8 0L47.8 0 39.26 0ZM86.32-30.96Q86.13-31.05 85.03-31.1 83.93-31.15 82.39-31.18 80.85-31.2 79.07-31.23 77.29-31.25 75.7-31.25 74.12-31.25 72.92-31.25 71.72-31.25 71.33-31.25L71.33-31.25Q70.94-27.59 70.92-23.93 70.89-20.26 70.89-16.6L70.89-16.6Q70.89-14.26 70.84-11.96 70.8-9.67 70.8-7.32L70.8-7.32Q70.8-6.93 70.8-5.83 70.8-4.74 70.84-3.52 70.89-2.29 71.06-1.27 71.24-0.24 71.53 0L71.53 0 62.98 0Q63.33-0.29 63.5-1.88 63.67-3.47 63.79-5.71 63.91-7.96 63.94-10.6 63.96-13.23 63.96-15.63 63.96-18.02 63.94-19.85 63.91-21.68 63.91-22.41L63.91-22.41Q63.91-24.61 63.89-26.81 63.86-29 63.72-31.2L63.72-31.2Q60.54-31.2 57.42-31.18 54.29-31.15 51.12-31.1L51.12-31.1Q50.63-31.1 49.87-31.08 49.12-31.05 48.29-31.05 47.46-31.05 46.7-31.01 45.94-30.96 45.5-30.86L45.5-30.86 45.36-35.94 86.37-36.18 86.32-30.96ZM122.6 0L113.42 0Q113.47-0.05 113.47-0.2L113.47-0.2Q113.47-0.54 113.2-1.34 112.93-2.15 112.61-3.05 112.3-3.96 111.96-4.76 111.61-5.57 111.47-5.91L111.47-5.91Q106.29-6.1 101.09-6.05 95.89-6.01 90.72-5.81L90.72-5.81Q90.57-5.47 90.23-4.66 89.89-3.86 89.57-2.98 89.25-2.1 88.98-1.32 88.71-0.54 88.71-0.2L88.71-0.2Q88.71-0.05 88.76 0L88.76 0 79.63 0Q79.92-0.34 80.34-1.1 80.75-1.86 81.17-2.71 81.58-3.56 81.97-4.37 82.37-5.18 82.56-5.62L82.56-5.62Q83.1-6.69 84.27-9.08 85.44-11.47 86.88-14.53 88.32-17.58 89.86-20.92 91.4-24.27 92.67-27.25 93.94-30.22 94.74-32.47 95.55-34.72 95.55-35.55L95.55-35.55Q95.55-35.64 95.52-35.77 95.5-35.89 95.4-35.89L95.4-35.89 106.83-35.89Q106.73-35.89 106.71-35.77 106.68-35.64 106.68-35.55L106.68-35.55Q106.68-34.72 107.49-32.47 108.29-30.22 109.56-27.25 110.83-24.27 112.37-20.92 113.91-17.58 115.35-14.53 116.79-11.47 117.94-9.08 119.08-6.69 119.62-5.62L119.62-5.62Q119.82-5.18 120.21-4.37 120.6-3.56 121.04-2.71 121.48-1.86 121.89-1.1 122.31-0.34 122.6 0L122.6 0ZM92.72-10.45L94.77-10.4Q102.04-10.4 109.37-10.69L109.37-10.69Q107.37-15.14 105.39-19.48 103.41-23.83 101.12-28.08L101.12-28.08Q98.77-23.78 96.77-19.34 94.77-14.89 92.72-10.45L92.72-10.45ZM161.76-35.99Q161.12-35.99 160.73-34.86 160.34-33.74 160.07-32.03 159.8-30.32 159.68-28.25 159.56-26.17 159.54-24.27 159.51-22.36 159.51-20.87 159.51-19.38 159.51-18.85L159.51-18.85Q159.51-15.97 159.46-13.11 159.41-10.25 159.41-7.32L159.41-7.32Q159.41-6.93 159.41-5.83 159.41-4.74 159.46-3.52 159.51-2.29 159.68-1.27 159.85-0.24 160.15 0L160.15 0 151.55 0Q150.92-0.73 150.36-1.54 149.79-2.34 149.21-3.13L149.21-3.13 145.5-8.11Q142.37-12.3 139.2-16.46 136.03-20.61 132.66-24.66L132.66-24.66Q132.46-23.05 132.41-21.41 132.36-19.78 132.31-18.16L132.31-18.16Q132.22-15.67 132.17-13.18 132.12-10.69 132.12-8.2L132.12-8.2Q132.12-7.81 132.12-6.57 132.12-5.32 132.17-3.96 132.22-2.59 132.34-1.42 132.46-0.24 132.7 0L132.7 0 124.16 0Q124.45-0.29 124.65-1.88 124.84-3.47 124.94-5.71 125.04-7.96 125.09-10.57 125.14-13.18 125.14-15.58 125.14-17.97 125.11-19.82 125.09-21.68 125.09-22.41L125.09-22.41Q125.09-22.85 125.11-23.97 125.14-25.1 125.11-26.56 125.09-28.03 125.01-29.64 124.94-31.25 124.75-32.62 124.55-33.98 124.21-34.91 123.87-35.84 123.38-35.99L123.38-35.99 135.2-35.99Q135.05-35.94 135.05-35.6L135.05-35.6Q135.05-34.77 136.15-32.71 137.25-30.66 138.98-28 140.71-25.34 142.79-22.36 144.86-19.38 146.79-16.7 148.72-14.01 150.26-11.94 151.8-9.86 152.48-8.98L152.48-8.98Q152.58-12.35 152.55-15.7 152.53-19.04 152.53-22.41L152.53-22.41Q152.53-22.85 152.55-23.97 152.58-25.1 152.55-26.56 152.53-28.03 152.46-29.64 152.38-31.25 152.19-32.62 151.99-33.98 151.65-34.91 151.31-35.84 150.82-35.99L150.82-35.99 161.76-35.99ZM184.7-4.74L184.7-4.74Q186.51-4.74 188.56-5.18 190.61-5.62 192.32-6.62 194.03-7.62 195.15-9.16 196.28-10.69 196.28-12.89L196.28-12.89Q196.28-16.41 196.37-19.9 196.47-23.39 196.47-26.9L196.47-26.9Q196.47-27.54 196.47-28.83 196.47-30.13 196.42-31.49 196.37-32.86 196.28-34.08 196.18-35.3 195.98-35.89L195.98-35.89 204.87-35.89Q204.43-35.45 204.21-34.69 203.99-33.94 203.89-33.08 203.8-32.23 203.8-31.42 203.8-30.62 203.8-30.03L203.8-30.03Q203.8-25.73 203.94-21.56 204.09-17.38 204.09-13.09L204.09-13.09Q204.09-10.64 203.21-8.72 202.33-6.79 200.82-5.32 199.3-3.86 197.33-2.81 195.35-1.76 193.18-1.1 191-0.44 188.78-0.15 186.56 0.15 184.56 0.15L184.56 0.15Q181.48 0.15 178.14-0.56 174.79-1.27 172.01-2.83 169.23-4.39 167.39-6.91 165.56-9.42 165.56-13.09L165.56-13.09Q165.56-17.38 165.71-21.56 165.86-25.73 165.86-29.98L165.86-29.98Q165.86-30.57 165.86-31.4 165.86-32.23 165.76-33.08 165.66-33.94 165.44-34.69 165.22-35.45 164.78-35.89L164.78-35.89 173.96-35.89Q173.77-35.3 173.67-34.08 173.57-32.86 173.52-31.49 173.47-30.13 173.47-28.83 173.47-27.54 173.47-26.9L173.47-26.9Q173.47-23.39 173.57-19.9 173.67-16.41 173.67-12.89L173.67-12.89Q173.67-10.69 174.69-9.16 175.72-7.62 177.31-6.64 178.89-5.66 180.85-5.2 182.8-4.74 184.7-4.74ZM244.13-0.1L208.68 0Q208.97-0.29 209.16-1.88 209.36-3.47 209.48-5.71 209.6-7.96 209.63-10.6 209.65-13.23 209.65-15.63 209.65-18.02 209.63-19.85 209.6-21.68 209.6-22.41L209.6-22.41Q209.6-22.85 209.6-23.93 209.6-25 209.58-26.32 209.56-27.64 209.51-29.13 209.46-30.62 209.34-31.88 209.21-33.15 209.02-34.11 208.82-35.06 208.53-35.4L208.53-35.4Q208.38-35.55 208.21-35.69 208.04-35.84 207.9-35.99L207.9-35.99 243.34-35.89 242.81-30.47Q242.56-30.57 241.61-30.62 240.66-30.66 239.29-30.71 237.92-30.76 236.36-30.79 234.8-30.81 233.41-30.81 232.02-30.81 230.94-30.81 229.87-30.81 229.48-30.81L229.48-30.81Q223.23-30.81 216.93-30.66L216.93-30.66Q216.68-28.22 216.64-25.81 216.59-23.39 216.59-20.9L216.59-20.9 239.05-21.14 239-15.92Q238.8-15.97 238.05-16.04 237.29-16.11 236.26-16.14 235.24-16.16 234.04-16.19 232.85-16.21 231.8-16.21 230.75-16.21 229.92-16.21 229.09-16.21 228.79-16.21L228.79-16.21Q222.69-16.21 216.54-16.06L216.54-16.06Q216.54-13.87 216.51-11.69 216.49-9.52 216.49-7.32L216.49-7.32 216.49-5.37Q219.96-5.22 223.4-5.22 226.84-5.22 230.31-5.22L230.31-5.22Q230.65-5.22 231.72-5.22 232.8-5.22 234.21-5.22 235.63-5.22 237.17-5.25 238.71-5.27 240.07-5.3 241.44-5.32 242.39-5.37 243.34-5.42 243.59-5.52L243.59-5.52 244.13-0.1ZM294.71 0Q294.9-0.24 294.9-0.83 294.9-1.42 294.9-1.71L294.9-1.71Q294.9-4.74 294.59-7.76 294.27-10.79 293.88-13.77L293.88-13.77Q293.59-16.5 293.22-19.43 292.85-22.36 292.32-25L292.32-25Q289.83-21.48 287.65-17.82 285.48-14.16 283.28-10.45L283.28-10.45 280.79-6.15Q280.4-5.52 280.04-4.86 279.67-4.2 279.23-3.61L279.23-3.61Q278.21-3.56 277.18-3.56 276.15-3.56 275.13-3.56L275.13-3.56Q274.1-3.56 273.05-3.54 272-3.52 270.98-3.61L270.98-3.61Q270.59-4.2 270.22-4.86 269.86-5.52 269.46-6.2L269.46-6.2 266.93-10.5Q264.73-14.16 262.56-17.82 260.38-21.48 257.89-25L257.89-25Q257.36-22.36 257.01-19.43 256.67-16.5 256.33-13.77L256.33-13.77Q255.94-10.79 255.62-7.76 255.3-4.74 255.3-1.71L255.3-1.71Q255.3-1.42 255.3-0.83 255.3-0.24 255.55 0L255.55 0 246.61 0Q246.91-0.29 247.2-1.49 247.49-2.69 247.76-4.35 248.03-6.01 248.25-7.91 248.47-9.81 248.64-11.55 248.81-13.28 248.93-14.6 249.05-15.92 249.1-16.41L249.1-16.41Q249.45-20.21 249.86-24.12 250.28-28.03 250.28-31.84L250.28-31.84Q250.28-32.13 250.28-32.79 250.28-33.45 250.18-34.11 250.08-34.77 249.86-35.3 249.64-35.84 249.25-35.99L249.25-35.99 261.16-35.99Q260.92-35.84 260.92-35.5L260.92-35.5Q260.92-34.62 261.8-32.67 262.68-30.71 264.05-28.2 265.41-25.68 267.1-22.92 268.78-20.17 270.34-17.65 271.91-15.14 273.2-13.13 274.49-11.13 275.13-10.21L275.13-10.21Q275.71-11.13 277.01-13.13 278.3-15.14 279.89-17.65 281.48-20.17 283.14-22.95 284.8-25.73 286.16-28.22 287.53-30.71 288.41-32.67 289.29-34.62 289.29-35.5L289.29-35.5Q289.29-35.84 289.09-35.99L289.09-35.99 301.01-35.99Q300.57-35.84 300.35-35.3 300.13-34.77 300.03-34.11 299.93-33.45 299.93-32.79 299.93-32.13 299.93-31.84L299.93-31.84Q299.93-28.03 300.35-24.12 300.76-20.21 301.15-16.41L301.15-16.41Q301.2-15.92 301.3-14.6 301.4-13.28 301.57-11.55 301.74-9.81 301.96-7.91 302.18-6.01 302.45-4.35 302.72-2.69 303.01-1.49 303.3-0.29 303.64 0L303.64 0 294.71 0Z" opacity="1" transform="matrix(1,0,0,1,0,0)" fill="white" class="wordmark-text-0" id="SvgjsPath1955"></path></svg></g></svg></g><g transform="matrix(1,0,0,1,0,35.5004720279627)"><svg viewBox="0 0 244.43135999999998 17.74914464262792" height="17.74914464262792" width="244.43135999999998"><g transform="matrix(1,0,0,1,0,0)"><svg width="244.43135999999998" viewBox="1.95 -34.2 486.82 35.35" height="17.74914464262792" data-palette-color="url(#bc149d6e-7490-457d-8d22-12fd0e15b87b)"><path d="M21.85-15.65L11.45-15.65 11.45-1.65 15.8-1.2 15.8 0 1.95 0 1.95-1.2 6.3-1.65 6.3-31.7 1.95-32.3 1.95-33.4 26.2-33.4 26.25-26.3 24.95-26.3 23.25-31.6 11.45-31.75 11.45-17.45 21.85-17.45 23.4-21.15 24.4-21.15 24.4-11.85 23.35-11.85 21.85-15.65ZM69.04-1.2L69.04 0 55.54 0 55.54-1.05 59.44-1.65 55.04-13.15 43.79-13.15 39.59-2.5 44.04-1.2 44.04 0 33.59 0 33.59-1.2 37.39-2.5 49.69-33.4 52.14-33.4 65.19-1.65 69.04-1.2ZM44.49-15L54.29-15 49.39-27.15 44.49-15ZM98.44-26.05L96.74-31.75Q94.04-32.7 91.19-32.7 88.34-32.7 86.19-31.08 84.04-29.45 84.04-26.25L84.04-26.25Q84.04-23.15 86.69-21.5L86.69-21.5Q88.14-20.6 89.06-20.2 89.99-19.8 91.76-19.15 93.54-18.5 94.19-18.23 94.84-17.95 96.11-17.38 97.39-16.8 98.01-16.35 98.64-15.9 99.54-15.1 100.44-14.3 100.89-13.5L100.89-13.5Q101.99-11.45 101.99-9.05L101.99-9.05Q101.99-4.8 98.54-2.1 95.09 0.6 89.59 0.6L89.59 0.6Q85.39 0.6 81.74-0.8L81.74-0.8Q79.94-1.45 78.79-2.6 77.64-3.75 77.64-5.25L77.64-5.25Q77.64-7.7 81.19-8.6L81.19-8.6Q81.74-5.6 83.29-3.75 84.84-1.9 86.51-1.3 88.19-0.7 90.61-0.7 93.04-0.7 95.19-2.27 97.34-3.85 97.34-7.45L97.34-7.45Q97.34-10.2 94.84-11.95L94.84-11.95Q92.84-13.3 89.91-14.5 86.99-15.7 85.99-16.13 84.99-16.55 83.41-17.48 81.84-18.4 81.09-19.3L81.09-19.3Q79.14-21.65 79.14-24.7L79.14-24.7Q79.14-29.4 82.49-31.8 85.84-34.2 91.74-34.2L91.74-34.2Q95.29-34.2 99.99-33.4L99.99-33.4 99.99-26.05 98.44-26.05ZM150.58-1.2L150.58 0 136.73 0 136.73-1.2 141.08-1.65 141.08-16.5 123.33-16.5 123.33-1.65 127.68-1.2 127.68 0 113.83 0 113.83-1.2 118.18-1.65 118.18-31.75 113.83-32.2 113.83-33.4 127.68-33.4 127.68-32.2 123.33-31.75 123.33-18.3 141.08-18.3 141.08-31.75 136.73-32.2 136.73-33.4 150.58-33.4 150.58-32.2 146.23-31.75 146.23-1.65 150.58-1.2ZM176.07-1.2L176.07 0 162.22 0 162.22-1.2 166.57-1.65 166.57-31.75 162.22-32.2 162.22-33.4 176.07-33.4 176.07-32.2 171.72-31.75 171.72-1.65 176.07-1.2ZM221.37-16.8Q221.37-9.3 216.82-4.38 212.27 0.55 204.62 0.55 196.97 0.55 192.39-4.38 187.82-9.3 187.82-16.8 187.82-24.3 192.39-29.23 196.97-34.15 204.62-34.15 212.27-34.15 216.82-29.23 221.37-24.3 221.37-16.8ZM204.67-1L204.67-1Q215.27-1 215.27-16.8L215.27-16.8Q215.27-24.4 212.84-28.5 210.42-32.6 204.62-32.6 198.82-32.6 196.37-28.53 193.92-24.45 193.92-16.8L193.92-16.8Q193.92-1 204.67-1ZM258.61-32.2L258.61-33.4 268.71-33.4 268.71-32.2 265.21-31.05 265.21 0 262.46 0 239.56-27.45 239.56-2.45 243.71-1.2 243.71 0 233.41 0 233.41-1.2 237.41-2.45 237.41-31.75 233.06-32.25 233.06-33.4 241.26-33.4 262.46-7.75 262.46-31.05 258.61-32.2ZM322-26.05L320.3-31.75Q317.6-32.7 314.75-32.7 311.9-32.7 309.75-31.08 307.6-29.45 307.6-26.25L307.6-26.25Q307.6-23.15 310.25-21.5L310.25-21.5Q311.7-20.6 312.62-20.2 313.55-19.8 315.32-19.15 317.1-18.5 317.75-18.23 318.4-17.95 319.67-17.38 320.95-16.8 321.57-16.35 322.2-15.9 323.1-15.1 324-14.3 324.45-13.5L324.45-13.5Q325.55-11.45 325.55-9.05L325.55-9.05Q325.55-4.8 322.1-2.1 318.65 0.6 313.15 0.6L313.15 0.6Q308.95 0.6 305.3-0.8L305.3-0.8Q303.5-1.45 302.35-2.6 301.2-3.75 301.2-5.25L301.2-5.25Q301.2-7.7 304.75-8.6L304.75-8.6Q305.3-5.6 306.85-3.75 308.4-1.9 310.07-1.3 311.75-0.7 314.17-0.7 316.6-0.7 318.75-2.27 320.9-3.85 320.9-7.45L320.9-7.45Q320.9-10.2 318.4-11.95L318.4-11.95Q316.4-13.3 313.47-14.5 310.55-15.7 309.55-16.13 308.55-16.55 306.97-17.48 305.4-18.4 304.65-19.3L304.65-19.3Q302.7-21.65 302.7-24.7L302.7-24.7Q302.7-29.4 306.05-31.8 309.4-34.2 315.3-34.2L315.3-34.2Q318.85-34.2 323.55-33.4L323.55-33.4 323.55-26.05 322-26.05ZM365.69-33.35L365.69-25.8 364.19-25.8 362.49-31.55 353.64-31.65 353.64-1.65 358.29-1.2 358.29 0 343.84 0 343.84-1.2 348.49-1.65 348.49-31.65 339.64-31.55 337.94-25.8 336.49-25.8 336.49-33.35 351.09-33.45 365.69-33.35ZM410.23-16.8Q410.23-9.3 405.68-4.38 401.13 0.55 393.48 0.55 385.83 0.55 381.26-4.38 376.68-9.3 376.68-16.8 376.68-24.3 381.26-29.23 385.83-34.15 393.48-34.15 401.13-34.15 405.68-29.23 410.23-24.3 410.23-16.8ZM393.53-1L393.53-1Q404.13-1 404.13-16.8L404.13-16.8Q404.13-24.4 401.71-28.5 399.28-32.6 393.48-32.6 387.68-32.6 385.23-28.53 382.78-24.45 382.78-16.8L382.78-16.8Q382.78-1 393.53-1ZM431.33-31.95L431.33-17.6 433.83-17.6Q442.78-17.6 442.78-25.1L442.78-25.1Q442.78-28.8 441.03-30.48 439.28-32.15 435.43-32.15L435.43-32.15Q433.93-32.15 431.33-31.95L431.33-31.95ZM428.68-33.5L431.23-33.5 436.93-33.65Q448.28-33.65 448.28-25.1L448.28-25.1Q448.28-21.4 445.75-19.03 443.23-16.65 439.23-16.65L439.23-16.65Q438.88-16.65 437.98-16.75L437.98-16.75 437.98-16.65Q443.33-15.9 445.35-13.18 447.38-10.45 447.38-4.85L447.38-4.85Q447.38-1.35 448.68-0.8L448.68-0.8Q449.28-0.4 450.35-0.4 451.43-0.4 453.13-1.05L453.13-1.05 453.13 0.2Q450.48 1.15 448.28 1.15L448.28 1.15Q443.38 1.15 442.23-3.05L442.23-3.05Q441.93-4.15 441.9-6.15 441.88-8.15 441.73-9.7 441.58-11.25 441.03-12.8L441.03-12.8Q439.78-16.15 434.13-16.15L434.13-16.15 431.33-16.15 431.33-1.45 435.18-1.1 435.18 0 422.43 0 422.43-1.05 426.18-1.45 426.18-31.85 421.83-32.35 421.83-33.65Q425.03-33.5 428.68-33.5L428.68-33.5ZM488.17 0L462.62 0 462.62-1.2 466.97-1.65 466.97-31.75 462.62-32.3 462.62-33.4 486.57-33.4 486.62-26.3 485.32-26.3 483.62-31.6 472.12-31.75 472.12-18.3 482.22-18.3 483.77-22 484.77-22 484.77-12.7 483.72-12.7 482.22-16.5 472.12-16.5 472.12-1.6 485.12-1.75 487.47-7.45 488.77-7.45 488.17 0Z" opacity="1" transform="matrix(1,0,0,1,0,0)" fill="black" class="slogan-text-1" id="SvgjsPath1954"></path></svg></g></svg></g></svg></g></svg></g></svg></g></svg></g></svg></g><path d="M199.424 90.975L199.424 26.611 393.402 26.611 393.402 220.589 199.424 220.589 199.424 156.225 202.014 156.225 202.014 217.999 390.812 217.999 390.812 29.201 202.014 29.201 202.014 90.975Z" fill="black" stroke="transparent"></path></svg></g><defs><mask></mask></defs></svg><rect width="395.52" height="247.2" fill="black" stroke="none" visibility="hidden"></rect></g></mask><linearGradient x1="0" x2="1" y1="0.5" y2="0.5" id="f9ee606c-f850-4014-b262-08b428dc1fde"><stop stop-color="#ffa62e" offset="0"></stop><stop stop-color="#f71b3d" offset="1"></stop></linearGradient><rect width="395.52" height="247.2" fill="url(#f9ee606c-f850-4014-b262-08b428dc1fde)" mask="url(#9104d856-3b99-4e1f-983d-c1dcb7a67f6f)" data-fill-palette-color="primary"></rect><mask id="4051c964-92da-4ec4-b5ae-17367b247fc3"><g id="SvgjsG1967"><svg viewBox="0 0 395.52 247.2" height="247.2" width="395.52"><g><svg></svg></g><g><svg viewBox="0 0 395.52 247.2" height="247.2" width="395.52"><g transform="matrix(1,0,0,1,75.54432,96.97519166470468)"><svg viewBox="0 0 244.43135999999998 53.24961667059062" height="53.24961667059062" width="244.43135999999998"><g><svg viewBox="0 0 244.43135999999998 53.24961667059062" height="53.24961667059062" width="244.43135999999998"><g><svg viewBox="0 0 244.43135999999998 53.24961667059062" height="53.24961667059062" width="244.43135999999998"><g><svg viewBox="0 0 244.43135999999998 53.24961667059062" height="53.24961667059062" width="244.43135999999998"><g id="SvgjsG1966"><svg viewBox="0 0 244.43135999999998 53.24961667059062" height="53.24961667059062" width="244.43135999999998" id="SvgjsSvg1965"><g><svg viewBox="0 0 244.43135999999998 28.720298774478835" height="28.720298774478835" width="244.43135999999998"><g transform="matrix(1,0,0,1,0,0)"><svg width="244.43135999999998" viewBox="-5.52 -36.18 309.15999999999997 36.33" height="28.720298774478835" data-palette-color="url(#f9ee606c-f850-4014-b262-08b428dc1fde)"></svg></g></svg></g><g transform="matrix(1,0,0,1,0,35.5004720279627)"><svg viewBox="0 0 244.43135999999998 17.74914464262792" height="17.74914464262792" width="244.43135999999998"><g transform="matrix(1,0,0,1,0,0)"><svg width="244.43135999999998" viewBox="1.95 -34.2 486.82 35.35" height="17.74914464262792" data-palette-color="url(#bc149d6e-7490-457d-8d22-12fd0e15b87b)"><path d="M21.85-15.65L11.45-15.65 11.45-1.65 15.8-1.2 15.8 0 1.95 0 1.95-1.2 6.3-1.65 6.3-31.7 1.95-32.3 1.95-33.4 26.2-33.4 26.25-26.3 24.95-26.3 23.25-31.6 11.45-31.75 11.45-17.45 21.85-17.45 23.4-21.15 24.4-21.15 24.4-11.85 23.35-11.85 21.85-15.65ZM69.04-1.2L69.04 0 55.54 0 55.54-1.05 59.44-1.65 55.04-13.15 43.79-13.15 39.59-2.5 44.04-1.2 44.04 0 33.59 0 33.59-1.2 37.39-2.5 49.69-33.4 52.14-33.4 65.19-1.65 69.04-1.2ZM44.49-15L54.29-15 49.39-27.15 44.49-15ZM98.44-26.05L96.74-31.75Q94.04-32.7 91.19-32.7 88.34-32.7 86.19-31.08 84.04-29.45 84.04-26.25L84.04-26.25Q84.04-23.15 86.69-21.5L86.69-21.5Q88.14-20.6 89.06-20.2 89.99-19.8 91.76-19.15 93.54-18.5 94.19-18.23 94.84-17.95 96.11-17.38 97.39-16.8 98.01-16.35 98.64-15.9 99.54-15.1 100.44-14.3 100.89-13.5L100.89-13.5Q101.99-11.45 101.99-9.05L101.99-9.05Q101.99-4.8 98.54-2.1 95.09 0.6 89.59 0.6L89.59 0.6Q85.39 0.6 81.74-0.8L81.74-0.8Q79.94-1.45 78.79-2.6 77.64-3.75 77.64-5.25L77.64-5.25Q77.64-7.7 81.19-8.6L81.19-8.6Q81.74-5.6 83.29-3.75 84.84-1.9 86.51-1.3 88.19-0.7 90.61-0.7 93.04-0.7 95.19-2.27 97.34-3.85 97.34-7.45L97.34-7.45Q97.34-10.2 94.84-11.95L94.84-11.95Q92.84-13.3 89.91-14.5 86.99-15.7 85.99-16.13 84.99-16.55 83.41-17.48 81.84-18.4 81.09-19.3L81.09-19.3Q79.14-21.65 79.14-24.7L79.14-24.7Q79.14-29.4 82.49-31.8 85.84-34.2 91.74-34.2L91.74-34.2Q95.29-34.2 99.99-33.4L99.99-33.4 99.99-26.05 98.44-26.05ZM150.58-1.2L150.58 0 136.73 0 136.73-1.2 141.08-1.65 141.08-16.5 123.33-16.5 123.33-1.65 127.68-1.2 127.68 0 113.83 0 113.83-1.2 118.18-1.65 118.18-31.75 113.83-32.2 113.83-33.4 127.68-33.4 127.68-32.2 123.33-31.75 123.33-18.3 141.08-18.3 141.08-31.75 136.73-32.2 136.73-33.4 150.58-33.4 150.58-32.2 146.23-31.75 146.23-1.65 150.58-1.2ZM176.07-1.2L176.07 0 162.22 0 162.22-1.2 166.57-1.65 166.57-31.75 162.22-32.2 162.22-33.4 176.07-33.4 176.07-32.2 171.72-31.75 171.72-1.65 176.07-1.2ZM221.37-16.8Q221.37-9.3 216.82-4.38 212.27 0.55 204.62 0.55 196.97 0.55 192.39-4.38 187.82-9.3 187.82-16.8 187.82-24.3 192.39-29.23 196.97-34.15 204.62-34.15 212.27-34.15 216.82-29.23 221.37-24.3 221.37-16.8ZM204.67-1L204.67-1Q215.27-1 215.27-16.8L215.27-16.8Q215.27-24.4 212.84-28.5 210.42-32.6 204.62-32.6 198.82-32.6 196.37-28.53 193.92-24.45 193.92-16.8L193.92-16.8Q193.92-1 204.67-1ZM258.61-32.2L258.61-33.4 268.71-33.4 268.71-32.2 265.21-31.05 265.21 0 262.46 0 239.56-27.45 239.56-2.45 243.71-1.2 243.71 0 233.41 0 233.41-1.2 237.41-2.45 237.41-31.75 233.06-32.25 233.06-33.4 241.26-33.4 262.46-7.75 262.46-31.05 258.61-32.2ZM322-26.05L320.3-31.75Q317.6-32.7 314.75-32.7 311.9-32.7 309.75-31.08 307.6-29.45 307.6-26.25L307.6-26.25Q307.6-23.15 310.25-21.5L310.25-21.5Q311.7-20.6 312.62-20.2 313.55-19.8 315.32-19.15 317.1-18.5 317.75-18.23 318.4-17.95 319.67-17.38 320.95-16.8 321.57-16.35 322.2-15.9 323.1-15.1 324-14.3 324.45-13.5L324.45-13.5Q325.55-11.45 325.55-9.05L325.55-9.05Q325.55-4.8 322.1-2.1 318.65 0.6 313.15 0.6L313.15 0.6Q308.95 0.6 305.3-0.8L305.3-0.8Q303.5-1.45 302.35-2.6 301.2-3.75 301.2-5.25L301.2-5.25Q301.2-7.7 304.75-8.6L304.75-8.6Q305.3-5.6 306.85-3.75 308.4-1.9 310.07-1.3 311.75-0.7 314.17-0.7 316.6-0.7 318.75-2.27 320.9-3.85 320.9-7.45L320.9-7.45Q320.9-10.2 318.4-11.95L318.4-11.95Q316.4-13.3 313.47-14.5 310.55-15.7 309.55-16.13 308.55-16.55 306.97-17.48 305.4-18.4 304.65-19.3L304.65-19.3Q302.7-21.65 302.7-24.7L302.7-24.7Q302.7-29.4 306.05-31.8 309.4-34.2 315.3-34.2L315.3-34.2Q318.85-34.2 323.55-33.4L323.55-33.4 323.55-26.05 322-26.05ZM365.69-33.35L365.69-25.8 364.19-25.8 362.49-31.55 353.64-31.65 353.64-1.65 358.29-1.2 358.29 0 343.84 0 343.84-1.2 348.49-1.65 348.49-31.65 339.64-31.55 337.94-25.8 336.49-25.8 336.49-33.35 351.09-33.45 365.69-33.35ZM410.23-16.8Q410.23-9.3 405.68-4.38 401.13 0.55 393.48 0.55 385.83 0.55 381.26-4.38 376.68-9.3 376.68-16.8 376.68-24.3 381.26-29.23 385.83-34.15 393.48-34.15 401.13-34.15 405.68-29.23 410.23-24.3 410.23-16.8ZM393.53-1L393.53-1Q404.13-1 404.13-16.8L404.13-16.8Q404.13-24.4 401.71-28.5 399.28-32.6 393.48-32.6 387.68-32.6 385.23-28.53 382.78-24.45 382.78-16.8L382.78-16.8Q382.78-1 393.53-1ZM431.33-31.95L431.33-17.6 433.83-17.6Q442.78-17.6 442.78-25.1L442.78-25.1Q442.78-28.8 441.03-30.48 439.28-32.15 435.43-32.15L435.43-32.15Q433.93-32.15 431.33-31.95L431.33-31.95ZM428.68-33.5L431.23-33.5 436.93-33.65Q448.28-33.65 448.28-25.1L448.28-25.1Q448.28-21.4 445.75-19.03 443.23-16.65 439.23-16.65L439.23-16.65Q438.88-16.65 437.98-16.75L437.98-16.75 437.98-16.65Q443.33-15.9 445.35-13.18 447.38-10.45 447.38-4.85L447.38-4.85Q447.38-1.35 448.68-0.8L448.68-0.8Q449.28-0.4 450.35-0.4 451.43-0.4 453.13-1.05L453.13-1.05 453.13 0.2Q450.48 1.15 448.28 1.15L448.28 1.15Q443.38 1.15 442.23-3.05L442.23-3.05Q441.93-4.15 441.9-6.15 441.88-8.15 441.73-9.7 441.58-11.25 441.03-12.8L441.03-12.8Q439.78-16.15 434.13-16.15L434.13-16.15 431.33-16.15 431.33-1.45 435.18-1.1 435.18 0 422.43 0 422.43-1.05 426.18-1.45 426.18-31.85 421.83-32.35 421.83-33.65Q425.03-33.5 428.68-33.5L428.68-33.5ZM488.17 0L462.62 0 462.62-1.2 466.97-1.65 466.97-31.75 462.62-32.3 462.62-33.4 486.57-33.4 486.62-26.3 485.32-26.3 483.62-31.6 472.12-31.75 472.12-18.3 482.22-18.3 483.77-22 484.77-22 484.77-12.7 483.72-12.7 482.22-16.5 472.12-16.5 472.12-1.6 485.12-1.75 487.47-7.45 488.77-7.45 488.17 0Z" opacity="1" transform="matrix(1,0,0,1,0,0)" fill="white" class="slogan-text-1" id="SvgjsPath1964"></path></svg></g></svg></g></svg></g></svg></g></svg></g></svg></g></svg></g><path d="M199.424 90.975L199.424 26.611 393.402 26.611 393.402 220.589 199.424 220.589 199.424 156.225 202.014 156.225 202.014 217.999 390.812 217.999 390.812 29.201 202.014 29.201 202.014 90.975Z" fill="black" stroke="transparent"></path></svg></g><defs><mask></mask></defs><mask><g id="SvgjsG1963"><svg viewBox="0 0 395.52 247.2" height="247.2" width="395.52"><g><svg></svg></g><g><svg viewBox="0 0 395.52 247.2" height="247.2" width="395.52"><g transform="matrix(1,0,0,1,75.54432,96.97519166470468)"><svg viewBox="0 0 244.43135999999998 53.24961667059062" height="53.24961667059062" width="244.43135999999998"><g><svg viewBox="0 0 244.43135999999998 53.24961667059062" height="53.24961667059062" width="244.43135999999998"><g><svg viewBox="0 0 244.43135999999998 53.24961667059062" height="53.24961667059062" width="244.43135999999998"><g><svg viewBox="0 0 244.43135999999998 53.24961667059062" height="53.24961667059062" width="244.43135999999998"><g id="SvgjsG1962"><svg viewBox="0 0 244.43135999999998 53.24961667059062" height="53.24961667059062" width="244.43135999999998" id="SvgjsSvg1961"><g><svg viewBox="0 0 244.43135999999998 28.720298774478835" height="28.720298774478835" width="244.43135999999998"><g transform="matrix(1,0,0,1,0,0)"><svg width="244.43135999999998" viewBox="-5.52 -36.18 309.15999999999997 36.33" height="28.720298774478835" data-palette-color="url(#f9ee606c-f850-4014-b262-08b428dc1fde)"><path d="M35.45-30.96Q35.25-31.05 34.16-31.1 33.06-31.15 31.52-31.18 29.98-31.2 28.2-31.23 26.42-31.25 24.83-31.25 23.24-31.25 22.05-31.25 20.85-31.25 20.46-31.25L20.46-31.25Q20.07-27.59 20.04-23.93 20.02-20.26 20.02-16.6L20.02-16.6Q20.02-14.26 19.97-11.96 19.92-9.67 19.92-7.32L19.92-7.32Q19.92-6.93 19.92-5.83 19.92-4.74 19.97-3.52 20.02-2.29 20.19-1.27 20.36-0.24 20.65 0L20.65 0 12.11 0Q12.45-0.29 12.62-1.88 12.79-3.47 12.92-5.71 13.04-7.96 13.06-10.6 13.09-13.23 13.09-15.63 13.09-18.02 13.06-19.85 13.04-21.68 13.04-22.41L13.04-22.41Q13.04-24.61 13.01-26.81 12.99-29 12.84-31.2L12.84-31.2Q9.67-31.2 6.54-31.18 3.42-31.15 0.24-31.1L0.24-31.1Q-0.24-31.1-1-31.08-1.76-31.05-2.59-31.05-3.42-31.05-4.17-31.01-4.93-30.96-5.37-30.86L-5.37-30.86-5.52-35.94 35.5-36.18 35.45-30.96ZM39.26 0Q39.55-0.29 39.74-1.88 39.94-3.47 40.06-5.71 40.18-7.96 40.21-10.6 40.23-13.23 40.23-15.63 40.23-18.02 40.21-19.85 40.18-21.68 40.18-22.41L40.18-22.41Q40.18-22.85 40.21-23.97 40.23-25.1 40.21-26.56 40.18-28.03 40.11-29.64 40.04-31.25 39.84-32.62 39.65-33.98 39.3-34.91 38.96-35.84 38.47-35.99L38.47-35.99 49.41-35.99Q48.78-35.99 48.36-34.86 47.95-33.74 47.7-32.03 47.46-30.32 47.34-28.25 47.21-26.17 47.17-24.27 47.12-22.36 47.12-20.87 47.12-19.38 47.12-18.85L47.12-18.85Q47.12-15.97 47.09-13.11 47.07-10.25 47.07-7.32L47.07-7.32Q47.07-6.93 47.07-5.81 47.07-4.69 47.12-3.49 47.17-2.29 47.34-1.27 47.51-0.24 47.8 0L47.8 0 39.26 0ZM86.32-30.96Q86.13-31.05 85.03-31.1 83.93-31.15 82.39-31.18 80.85-31.2 79.07-31.23 77.29-31.25 75.7-31.25 74.12-31.25 72.92-31.25 71.72-31.25 71.33-31.25L71.33-31.25Q70.94-27.59 70.92-23.93 70.89-20.26 70.89-16.6L70.89-16.6Q70.89-14.26 70.84-11.96 70.8-9.67 70.8-7.32L70.8-7.32Q70.8-6.93 70.8-5.83 70.8-4.74 70.84-3.52 70.89-2.29 71.06-1.27 71.24-0.24 71.53 0L71.53 0 62.98 0Q63.33-0.29 63.5-1.88 63.67-3.47 63.79-5.71 63.91-7.96 63.94-10.6 63.96-13.23 63.96-15.63 63.96-18.02 63.94-19.85 63.91-21.68 63.91-22.41L63.91-22.41Q63.91-24.61 63.89-26.81 63.86-29 63.72-31.2L63.72-31.2Q60.54-31.2 57.42-31.18 54.29-31.15 51.12-31.1L51.12-31.1Q50.63-31.1 49.87-31.08 49.12-31.05 48.29-31.05 47.46-31.05 46.7-31.01 45.94-30.96 45.5-30.86L45.5-30.86 45.36-35.94 86.37-36.18 86.32-30.96ZM122.6 0L113.42 0Q113.47-0.05 113.47-0.2L113.47-0.2Q113.47-0.54 113.2-1.34 112.93-2.15 112.61-3.05 112.3-3.96 111.96-4.76 111.61-5.57 111.47-5.91L111.47-5.91Q106.29-6.1 101.09-6.05 95.89-6.01 90.72-5.81L90.72-5.81Q90.57-5.47 90.23-4.66 89.89-3.86 89.57-2.98 89.25-2.1 88.98-1.32 88.71-0.54 88.71-0.2L88.71-0.2Q88.71-0.05 88.76 0L88.76 0 79.63 0Q79.92-0.34 80.34-1.1 80.75-1.86 81.17-2.71 81.58-3.56 81.97-4.37 82.37-5.18 82.56-5.62L82.56-5.62Q83.1-6.69 84.27-9.08 85.44-11.47 86.88-14.53 88.32-17.58 89.86-20.92 91.4-24.27 92.67-27.25 93.94-30.22 94.74-32.47 95.55-34.72 95.55-35.55L95.55-35.55Q95.55-35.64 95.52-35.77 95.5-35.89 95.4-35.89L95.4-35.89 106.83-35.89Q106.73-35.89 106.71-35.77 106.68-35.64 106.68-35.55L106.68-35.55Q106.68-34.72 107.49-32.47 108.29-30.22 109.56-27.25 110.83-24.27 112.37-20.92 113.91-17.58 115.35-14.53 116.79-11.47 117.94-9.08 119.08-6.69 119.62-5.62L119.62-5.62Q119.82-5.18 120.21-4.37 120.6-3.56 121.04-2.71 121.48-1.86 121.89-1.1 122.31-0.34 122.6 0L122.6 0ZM92.72-10.45L94.77-10.4Q102.04-10.4 109.37-10.69L109.37-10.69Q107.37-15.14 105.39-19.48 103.41-23.83 101.12-28.08L101.12-28.08Q98.77-23.78 96.77-19.34 94.77-14.89 92.72-10.45L92.72-10.45ZM161.76-35.99Q161.12-35.99 160.73-34.86 160.34-33.74 160.07-32.03 159.8-30.32 159.68-28.25 159.56-26.17 159.54-24.27 159.51-22.36 159.51-20.87 159.51-19.38 159.51-18.85L159.51-18.85Q159.51-15.97 159.46-13.11 159.41-10.25 159.41-7.32L159.41-7.32Q159.41-6.93 159.41-5.83 159.41-4.74 159.46-3.52 159.51-2.29 159.68-1.27 159.85-0.24 160.15 0L160.15 0 151.55 0Q150.92-0.73 150.36-1.54 149.79-2.34 149.21-3.13L149.21-3.13 145.5-8.11Q142.37-12.3 139.2-16.46 136.03-20.61 132.66-24.66L132.66-24.66Q132.46-23.05 132.41-21.41 132.36-19.78 132.31-18.16L132.31-18.16Q132.22-15.67 132.17-13.18 132.12-10.69 132.12-8.2L132.12-8.2Q132.12-7.81 132.12-6.57 132.12-5.32 132.17-3.96 132.22-2.59 132.34-1.42 132.46-0.24 132.7 0L132.7 0 124.16 0Q124.45-0.29 124.65-1.88 124.84-3.47 124.94-5.71 125.04-7.96 125.09-10.57 125.14-13.18 125.14-15.58 125.14-17.97 125.11-19.82 125.09-21.68 125.09-22.41L125.09-22.41Q125.09-22.85 125.11-23.97 125.14-25.1 125.11-26.56 125.09-28.03 125.01-29.64 124.94-31.25 124.75-32.62 124.55-33.98 124.21-34.91 123.87-35.84 123.38-35.99L123.38-35.99 135.2-35.99Q135.05-35.94 135.05-35.6L135.05-35.6Q135.05-34.77 136.15-32.71 137.25-30.66 138.98-28 140.71-25.34 142.79-22.36 144.86-19.38 146.79-16.7 148.72-14.01 150.26-11.94 151.8-9.86 152.48-8.98L152.48-8.98Q152.58-12.35 152.55-15.7 152.53-19.04 152.53-22.41L152.53-22.41Q152.53-22.85 152.55-23.97 152.58-25.1 152.55-26.56 152.53-28.03 152.46-29.64 152.38-31.25 152.19-32.62 151.99-33.98 151.65-34.91 151.31-35.84 150.82-35.99L150.82-35.99 161.76-35.99ZM184.7-4.74L184.7-4.74Q186.51-4.74 188.56-5.18 190.61-5.62 192.32-6.62 194.03-7.62 195.15-9.16 196.28-10.69 196.28-12.89L196.28-12.89Q196.28-16.41 196.37-19.9 196.47-23.39 196.47-26.9L196.47-26.9Q196.47-27.54 196.47-28.83 196.47-30.13 196.42-31.49 196.37-32.86 196.28-34.08 196.18-35.3 195.98-35.89L195.98-35.89 204.87-35.89Q204.43-35.45 204.21-34.69 203.99-33.94 203.89-33.08 203.8-32.23 203.8-31.42 203.8-30.62 203.8-30.03L203.8-30.03Q203.8-25.73 203.94-21.56 204.09-17.38 204.09-13.09L204.09-13.09Q204.09-10.64 203.21-8.72 202.33-6.79 200.82-5.32 199.3-3.86 197.33-2.81 195.35-1.76 193.18-1.1 191-0.44 188.78-0.15 186.56 0.15 184.56 0.15L184.56 0.15Q181.48 0.15 178.14-0.56 174.79-1.27 172.01-2.83 169.23-4.39 167.39-6.91 165.56-9.42 165.56-13.09L165.56-13.09Q165.56-17.38 165.71-21.56 165.86-25.73 165.86-29.98L165.86-29.98Q165.86-30.57 165.86-31.4 165.86-32.23 165.76-33.08 165.66-33.94 165.44-34.69 165.22-35.45 164.78-35.89L164.78-35.89 173.96-35.89Q173.77-35.3 173.67-34.08 173.57-32.86 173.52-31.49 173.47-30.13 173.47-28.83 173.47-27.54 173.47-26.9L173.47-26.9Q173.47-23.39 173.57-19.9 173.67-16.41 173.67-12.89L173.67-12.89Q173.67-10.69 174.69-9.16 175.72-7.62 177.31-6.64 178.89-5.66 180.85-5.2 182.8-4.74 184.7-4.74ZM244.13-0.1L208.68 0Q208.97-0.29 209.16-1.88 209.36-3.47 209.48-5.71 209.6-7.96 209.63-10.6 209.65-13.23 209.65-15.63 209.65-18.02 209.63-19.85 209.6-21.68 209.6-22.41L209.6-22.41Q209.6-22.85 209.6-23.93 209.6-25 209.58-26.32 209.56-27.64 209.51-29.13 209.46-30.62 209.34-31.88 209.21-33.15 209.02-34.11 208.82-35.06 208.53-35.4L208.53-35.4Q208.38-35.55 208.21-35.69 208.04-35.84 207.9-35.99L207.9-35.99 243.34-35.89 242.81-30.47Q242.56-30.57 241.61-30.62 240.66-30.66 239.29-30.71 237.92-30.76 236.36-30.79 234.8-30.81 233.41-30.81 232.02-30.81 230.94-30.81 229.87-30.81 229.48-30.81L229.48-30.81Q223.23-30.81 216.93-30.66L216.93-30.66Q216.68-28.22 216.64-25.81 216.59-23.39 216.59-20.9L216.59-20.9 239.05-21.14 239-15.92Q238.8-15.97 238.05-16.04 237.29-16.11 236.26-16.14 235.24-16.16 234.04-16.19 232.85-16.21 231.8-16.21 230.75-16.21 229.92-16.21 229.09-16.21 228.79-16.21L228.79-16.21Q222.69-16.21 216.54-16.06L216.54-16.06Q216.54-13.87 216.51-11.69 216.49-9.52 216.49-7.32L216.49-7.32 216.49-5.37Q219.96-5.22 223.4-5.22 226.84-5.22 230.31-5.22L230.31-5.22Q230.65-5.22 231.72-5.22 232.8-5.22 234.21-5.22 235.63-5.22 237.17-5.25 238.71-5.27 240.07-5.3 241.44-5.32 242.39-5.37 243.34-5.42 243.59-5.52L243.59-5.52 244.13-0.1ZM294.71 0Q294.9-0.24 294.9-0.83 294.9-1.42 294.9-1.71L294.9-1.71Q294.9-4.74 294.59-7.76 294.27-10.79 293.88-13.77L293.88-13.77Q293.59-16.5 293.22-19.43 292.85-22.36 292.32-25L292.32-25Q289.83-21.48 287.65-17.82 285.48-14.16 283.28-10.45L283.28-10.45 280.79-6.15Q280.4-5.52 280.04-4.86 279.67-4.2 279.23-3.61L279.23-3.61Q278.21-3.56 277.18-3.56 276.15-3.56 275.13-3.56L275.13-3.56Q274.1-3.56 273.05-3.54 272-3.52 270.98-3.61L270.98-3.61Q270.59-4.2 270.22-4.86 269.86-5.52 269.46-6.2L269.46-6.2 266.93-10.5Q264.73-14.16 262.56-17.82 260.38-21.48 257.89-25L257.89-25Q257.36-22.36 257.01-19.43 256.67-16.5 256.33-13.77L256.33-13.77Q255.94-10.79 255.62-7.76 255.3-4.74 255.3-1.71L255.3-1.71Q255.3-1.42 255.3-0.83 255.3-0.24 255.55 0L255.55 0 246.61 0Q246.91-0.29 247.2-1.49 247.49-2.69 247.76-4.35 248.03-6.01 248.25-7.91 248.47-9.81 248.64-11.55 248.81-13.28 248.93-14.6 249.05-15.92 249.1-16.41L249.1-16.41Q249.45-20.21 249.86-24.12 250.28-28.03 250.28-31.84L250.28-31.84Q250.28-32.13 250.28-32.79 250.28-33.45 250.18-34.11 250.08-34.77 249.86-35.3 249.64-35.84 249.25-35.99L249.25-35.99 261.16-35.99Q260.92-35.84 260.92-35.5L260.92-35.5Q260.92-34.62 261.8-32.67 262.68-30.71 264.05-28.2 265.41-25.68 267.1-22.92 268.78-20.17 270.34-17.65 271.91-15.14 273.2-13.13 274.49-11.13 275.13-10.21L275.13-10.21Q275.71-11.13 277.01-13.13 278.3-15.14 279.89-17.65 281.48-20.17 283.14-22.95 284.8-25.73 286.16-28.22 287.53-30.71 288.41-32.67 289.29-34.62 289.29-35.5L289.29-35.5Q289.29-35.84 289.09-35.99L289.09-35.99 301.01-35.99Q300.57-35.84 300.35-35.3 300.13-34.77 300.03-34.11 299.93-33.45 299.93-32.79 299.93-32.13 299.93-31.84L299.93-31.84Q299.93-28.03 300.35-24.12 300.76-20.21 301.15-16.41L301.15-16.41Q301.2-15.92 301.3-14.6 301.4-13.28 301.57-11.55 301.74-9.81 301.96-7.91 302.18-6.01 302.45-4.35 302.72-2.69 303.01-1.49 303.3-0.29 303.64 0L303.64 0 294.71 0Z" opacity="1" transform="matrix(1,0,0,1,0,0)" fill="black" class="wordmark-text-0" id="SvgjsPath1960"></path></svg></g></svg></g><g transform="matrix(1,0,0,1,0,35.5004720279627)"><svg viewBox="0 0 244.43135999999998 17.74914464262792" height="17.74914464262792" width="244.43135999999998"><g transform="matrix(1,0,0,1,0,0)"><svg width="244.43135999999998" viewBox="1.95 -34.2 486.82 35.35" height="17.74914464262792" data-palette-color="url(#bc149d6e-7490-457d-8d22-12fd0e15b87b)"><path d="M21.85-15.65L11.45-15.65 11.45-1.65 15.8-1.2 15.8 0 1.95 0 1.95-1.2 6.3-1.65 6.3-31.7 1.95-32.3 1.95-33.4 26.2-33.4 26.25-26.3 24.95-26.3 23.25-31.6 11.45-31.75 11.45-17.45 21.85-17.45 23.4-21.15 24.4-21.15 24.4-11.85 23.35-11.85 21.85-15.65ZM69.04-1.2L69.04 0 55.54 0 55.54-1.05 59.44-1.65 55.04-13.15 43.79-13.15 39.59-2.5 44.04-1.2 44.04 0 33.59 0 33.59-1.2 37.39-2.5 49.69-33.4 52.14-33.4 65.19-1.65 69.04-1.2ZM44.49-15L54.29-15 49.39-27.15 44.49-15ZM98.44-26.05L96.74-31.75Q94.04-32.7 91.19-32.7 88.34-32.7 86.19-31.08 84.04-29.45 84.04-26.25L84.04-26.25Q84.04-23.15 86.69-21.5L86.69-21.5Q88.14-20.6 89.06-20.2 89.99-19.8 91.76-19.15 93.54-18.5 94.19-18.23 94.84-17.95 96.11-17.38 97.39-16.8 98.01-16.35 98.64-15.9 99.54-15.1 100.44-14.3 100.89-13.5L100.89-13.5Q101.99-11.45 101.99-9.05L101.99-9.05Q101.99-4.8 98.54-2.1 95.09 0.6 89.59 0.6L89.59 0.6Q85.39 0.6 81.74-0.8L81.74-0.8Q79.94-1.45 78.79-2.6 77.64-3.75 77.64-5.25L77.64-5.25Q77.64-7.7 81.19-8.6L81.19-8.6Q81.74-5.6 83.29-3.75 84.84-1.9 86.51-1.3 88.19-0.7 90.61-0.7 93.04-0.7 95.19-2.27 97.34-3.85 97.34-7.45L97.34-7.45Q97.34-10.2 94.84-11.95L94.84-11.95Q92.84-13.3 89.91-14.5 86.99-15.7 85.99-16.13 84.99-16.55 83.41-17.48 81.84-18.4 81.09-19.3L81.09-19.3Q79.14-21.65 79.14-24.7L79.14-24.7Q79.14-29.4 82.49-31.8 85.84-34.2 91.74-34.2L91.74-34.2Q95.29-34.2 99.99-33.4L99.99-33.4 99.99-26.05 98.44-26.05ZM150.58-1.2L150.58 0 136.73 0 136.73-1.2 141.08-1.65 141.08-16.5 123.33-16.5 123.33-1.65 127.68-1.2 127.68 0 113.83 0 113.83-1.2 118.18-1.65 118.18-31.75 113.83-32.2 113.83-33.4 127.68-33.4 127.68-32.2 123.33-31.75 123.33-18.3 141.08-18.3 141.08-31.75 136.73-32.2 136.73-33.4 150.58-33.4 150.58-32.2 146.23-31.75 146.23-1.65 150.58-1.2ZM176.07-1.2L176.07 0 162.22 0 162.22-1.2 166.57-1.65 166.57-31.75 162.22-32.2 162.22-33.4 176.07-33.4 176.07-32.2 171.72-31.75 171.72-1.65 176.07-1.2ZM221.37-16.8Q221.37-9.3 216.82-4.38 212.27 0.55 204.62 0.55 196.97 0.55 192.39-4.38 187.82-9.3 187.82-16.8 187.82-24.3 192.39-29.23 196.97-34.15 204.62-34.15 212.27-34.15 216.82-29.23 221.37-24.3 221.37-16.8ZM204.67-1L204.67-1Q215.27-1 215.27-16.8L215.27-16.8Q215.27-24.4 212.84-28.5 210.42-32.6 204.62-32.6 198.82-32.6 196.37-28.53 193.92-24.45 193.92-16.8L193.92-16.8Q193.92-1 204.67-1ZM258.61-32.2L258.61-33.4 268.71-33.4 268.71-32.2 265.21-31.05 265.21 0 262.46 0 239.56-27.45 239.56-2.45 243.71-1.2 243.71 0 233.41 0 233.41-1.2 237.41-2.45 237.41-31.75 233.06-32.25 233.06-33.4 241.26-33.4 262.46-7.75 262.46-31.05 258.61-32.2ZM322-26.05L320.3-31.75Q317.6-32.7 314.75-32.7 311.9-32.7 309.75-31.08 307.6-29.45 307.6-26.25L307.6-26.25Q307.6-23.15 310.25-21.5L310.25-21.5Q311.7-20.6 312.62-20.2 313.55-19.8 315.32-19.15 317.1-18.5 317.75-18.23 318.4-17.95 319.67-17.38 320.95-16.8 321.57-16.35 322.2-15.9 323.1-15.1 324-14.3 324.45-13.5L324.45-13.5Q325.55-11.45 325.55-9.05L325.55-9.05Q325.55-4.8 322.1-2.1 318.65 0.6 313.15 0.6L313.15 0.6Q308.95 0.6 305.3-0.8L305.3-0.8Q303.5-1.45 302.35-2.6 301.2-3.75 301.2-5.25L301.2-5.25Q301.2-7.7 304.75-8.6L304.75-8.6Q305.3-5.6 306.85-3.75 308.4-1.9 310.07-1.3 311.75-0.7 314.17-0.7 316.6-0.7 318.75-2.27 320.9-3.85 320.9-7.45L320.9-7.45Q320.9-10.2 318.4-11.95L318.4-11.95Q316.4-13.3 313.47-14.5 310.55-15.7 309.55-16.13 308.55-16.55 306.97-17.48 305.4-18.4 304.65-19.3L304.65-19.3Q302.7-21.65 302.7-24.7L302.7-24.7Q302.7-29.4 306.05-31.8 309.4-34.2 315.3-34.2L315.3-34.2Q318.85-34.2 323.55-33.4L323.55-33.4 323.55-26.05 322-26.05ZM365.69-33.35L365.69-25.8 364.19-25.8 362.49-31.55 353.64-31.65 353.64-1.65 358.29-1.2 358.29 0 343.84 0 343.84-1.2 348.49-1.65 348.49-31.65 339.64-31.55 337.94-25.8 336.49-25.8 336.49-33.35 351.09-33.45 365.69-33.35ZM410.23-16.8Q410.23-9.3 405.68-4.38 401.13 0.55 393.48 0.55 385.83 0.55 381.26-4.38 376.68-9.3 376.68-16.8 376.68-24.3 381.26-29.23 385.83-34.15 393.48-34.15 401.13-34.15 405.68-29.23 410.23-24.3 410.23-16.8ZM393.53-1L393.53-1Q404.13-1 404.13-16.8L404.13-16.8Q404.13-24.4 401.71-28.5 399.28-32.6 393.48-32.6 387.68-32.6 385.23-28.53 382.78-24.45 382.78-16.8L382.78-16.8Q382.78-1 393.53-1ZM431.33-31.95L431.33-17.6 433.83-17.6Q442.78-17.6 442.78-25.1L442.78-25.1Q442.78-28.8 441.03-30.48 439.28-32.15 435.43-32.15L435.43-32.15Q433.93-32.15 431.33-31.95L431.33-31.95ZM428.68-33.5L431.23-33.5 436.93-33.65Q448.28-33.65 448.28-25.1L448.28-25.1Q448.28-21.4 445.75-19.03 443.23-16.65 439.23-16.65L439.23-16.65Q438.88-16.65 437.98-16.75L437.98-16.75 437.98-16.65Q443.33-15.9 445.35-13.18 447.38-10.45 447.38-4.85L447.38-4.85Q447.38-1.35 448.68-0.8L448.68-0.8Q449.28-0.4 450.35-0.4 451.43-0.4 453.13-1.05L453.13-1.05 453.13 0.2Q450.48 1.15 448.28 1.15L448.28 1.15Q443.38 1.15 442.23-3.05L442.23-3.05Q441.93-4.15 441.9-6.15 441.88-8.15 441.73-9.7 441.58-11.25 441.03-12.8L441.03-12.8Q439.78-16.15 434.13-16.15L434.13-16.15 431.33-16.15 431.33-1.45 435.18-1.1 435.18 0 422.43 0 422.43-1.05 426.18-1.45 426.18-31.85 421.83-32.35 421.83-33.65Q425.03-33.5 428.68-33.5L428.68-33.5ZM488.17 0L462.62 0 462.62-1.2 466.97-1.65 466.97-31.75 462.62-32.3 462.62-33.4 486.57-33.4 486.62-26.3 485.32-26.3 483.62-31.6 472.12-31.75 472.12-18.3 482.22-18.3 483.77-22 484.77-22 484.77-12.7 483.72-12.7 482.22-16.5 472.12-16.5 472.12-1.6 485.12-1.75 487.47-7.45 488.77-7.45 488.17 0Z" opacity="1" transform="matrix(1,0,0,1,0,0)" fill="black" class="slogan-text-1" id="SvgjsPath1959"></path></svg></g></svg></g></svg></g></svg></g></svg></g></svg></g></svg></g><path d="M199.424 90.975L199.424 26.611 393.402 26.611 393.402 220.589 199.424 220.589 199.424 156.225 202.014 156.225 202.014 217.999 390.812 217.999 390.812 29.201 202.014 29.201 202.014 90.975Z" fill="black" stroke="transparent"></path></svg></g><defs><mask></mask></defs></svg><rect width="395.52" height="247.2" fill="black" stroke="none" visibility="hidden"></rect></g></mask></svg><rect width="395.52" height="247.2" fill="black" stroke="none" visibility="hidden"></rect></g></mask><linearGradient x1="0" x2="1" y1="0.5" y2="0.5" id="bc149d6e-7490-457d-8d22-12fd0e15b87b"><stop stop-color="#ffa62e" offset="0"></stop><stop stop-color="#f71b3d" offset="1"></stop></linearGradient><rect width="395.52" height="247.2" fill="url(#bc149d6e-7490-457d-8d22-12fd0e15b87b)" mask="url(#4051c964-92da-4ec4-b5ae-17367b247fc3)" data-fill-palette-color="secondary"></rect><mask id="d19e7308-d762-4862-99be-4094c874fb8b"><g id="SvgjsG2002"><svg viewBox="0 0 395.52 247.2" height="247.2" width="395.52"><g><svg></svg></g><g><svg viewBox="0 0 395.52 247.2" height="247.2" width="395.52"><g transform="matrix(1,0,0,1,75.54432,96.97519166470468)"><svg viewBox="0 0 244.43135999999998 53.24961667059062" height="53.24961667059062" width="244.43135999999998"><g><svg viewBox="0 0 244.43135999999998 53.24961667059062" height="53.24961667059062" width="244.43135999999998"><g><svg viewBox="0 0 244.43135999999998 53.24961667059062" height="53.24961667059062" width="244.43135999999998"><g><svg viewBox="0 0 244.43135999999998 53.24961667059062" height="53.24961667059062" width="244.43135999999998"><g id="SvgjsG2001"><svg viewBox="0 0 244.43135999999998 53.24961667059062" height="53.24961667059062" width="244.43135999999998" id="SvgjsSvg2000"><g><svg viewBox="0 0 244.43135999999998 28.720298774478835" height="28.720298774478835" width="244.43135999999998"><g transform="matrix(1,0,0,1,0,0)"><svg width="244.43135999999998" viewBox="-5.52 -36.18 309.15999999999997 36.33" height="28.720298774478835" data-palette-color="url(#f9ee606c-f850-4014-b262-08b428dc1fde)"></svg></g></svg></g><g transform="matrix(1,0,0,1,0,35.5004720279627)"><svg viewBox="0 0 244.43135999999998 17.74914464262792" height="17.74914464262792" width="244.43135999999998"><g transform="matrix(1,0,0,1,0,0)"><svg width="244.43135999999998" viewBox="1.95 -34.2 486.82 35.35" height="17.74914464262792" data-palette-color="url(#bc149d6e-7490-457d-8d22-12fd0e15b87b)"></svg></g></svg></g></svg></g></svg></g></svg></g></svg></g></svg></g><path d="M199.424 90.975L199.424 26.611 393.402 26.611 393.402 220.589 199.424 220.589 199.424 156.225 202.014 156.225 202.014 217.999 390.812 217.999 390.812 29.201 202.014 29.201 202.014 90.975Z" fill="white" stroke="transparent"></path></svg></g><defs><mask></mask></defs><mask><g id="SvgjsG1999"><svg viewBox="0 0 395.52 247.2" height="247.2" width="395.52"><g><svg></svg></g><g><svg viewBox="0 0 395.52 247.2" height="247.2" width="395.52"><g transform="matrix(1,0,0,1,75.54432,96.97519166470468)"><svg viewBox="0 0 244.43135999999998 53.24961667059062" height="53.24961667059062" width="244.43135999999998"><g><svg viewBox="0 0 244.43135999999998 53.24961667059062" height="53.24961667059062" width="244.43135999999998"><g><svg viewBox="0 0 244.43135999999998 53.24961667059062" height="53.24961667059062" width="244.43135999999998"><g><svg viewBox="0 0 244.43135999999998 53.24961667059062" height="53.24961667059062" width="244.43135999999998"><g id="SvgjsG1998"><svg viewBox="0 0 244.43135999999998 53.24961667059062" height="53.24961667059062" width="244.43135999999998" id="SvgjsSvg1997"><g><svg viewBox="0 0 244.43135999999998 28.720298774478835" height="28.720298774478835" width="244.43135999999998"><g transform="matrix(1,0,0,1,0,0)"><svg width="244.43135999999998" viewBox="-5.52 -36.18 309.15999999999997 36.33" height="28.720298774478835" data-palette-color="url(#f9ee606c-f850-4014-b262-08b428dc1fde)"><path d="M35.45-30.96Q35.25-31.05 34.16-31.1 33.06-31.15 31.52-31.18 29.98-31.2 28.2-31.23 26.42-31.25 24.83-31.25 23.24-31.25 22.05-31.25 20.85-31.25 20.46-31.25L20.46-31.25Q20.07-27.59 20.04-23.93 20.02-20.26 20.02-16.6L20.02-16.6Q20.02-14.26 19.97-11.96 19.92-9.67 19.92-7.32L19.92-7.32Q19.92-6.93 19.92-5.83 19.92-4.74 19.97-3.52 20.02-2.29 20.19-1.27 20.36-0.24 20.65 0L20.65 0 12.11 0Q12.45-0.29 12.62-1.88 12.79-3.47 12.92-5.71 13.04-7.96 13.06-10.6 13.09-13.23 13.09-15.63 13.09-18.02 13.06-19.85 13.04-21.68 13.04-22.41L13.04-22.41Q13.04-24.61 13.01-26.81 12.99-29 12.84-31.2L12.84-31.2Q9.67-31.2 6.54-31.18 3.42-31.15 0.24-31.1L0.24-31.1Q-0.24-31.1-1-31.08-1.76-31.05-2.59-31.05-3.42-31.05-4.17-31.01-4.93-30.96-5.37-30.86L-5.37-30.86-5.52-35.94 35.5-36.18 35.45-30.96ZM39.26 0Q39.55-0.29 39.74-1.88 39.94-3.47 40.06-5.71 40.18-7.96 40.21-10.6 40.23-13.23 40.23-15.63 40.23-18.02 40.21-19.85 40.18-21.68 40.18-22.41L40.18-22.41Q40.18-22.85 40.21-23.97 40.23-25.1 40.21-26.56 40.18-28.03 40.11-29.64 40.04-31.25 39.84-32.62 39.65-33.98 39.3-34.91 38.96-35.84 38.47-35.99L38.47-35.99 49.41-35.99Q48.78-35.99 48.36-34.86 47.95-33.74 47.7-32.03 47.46-30.32 47.34-28.25 47.21-26.17 47.17-24.27 47.12-22.36 47.12-20.87 47.12-19.38 47.12-18.85L47.12-18.85Q47.12-15.97 47.09-13.11 47.07-10.25 47.07-7.32L47.07-7.32Q47.07-6.93 47.07-5.81 47.07-4.69 47.12-3.49 47.17-2.29 47.34-1.27 47.51-0.24 47.8 0L47.8 0 39.26 0ZM86.32-30.96Q86.13-31.05 85.03-31.1 83.93-31.15 82.39-31.18 80.85-31.2 79.07-31.23 77.29-31.25 75.7-31.25 74.12-31.25 72.92-31.25 71.72-31.25 71.33-31.25L71.33-31.25Q70.94-27.59 70.92-23.93 70.89-20.26 70.89-16.6L70.89-16.6Q70.89-14.26 70.84-11.96 70.8-9.67 70.8-7.32L70.8-7.32Q70.8-6.93 70.8-5.83 70.8-4.74 70.84-3.52 70.89-2.29 71.06-1.27 71.24-0.24 71.53 0L71.53 0 62.98 0Q63.33-0.29 63.5-1.88 63.67-3.47 63.79-5.71 63.91-7.96 63.94-10.6 63.96-13.23 63.96-15.63 63.96-18.02 63.94-19.85 63.91-21.68 63.91-22.41L63.91-22.41Q63.91-24.61 63.89-26.81 63.86-29 63.72-31.2L63.72-31.2Q60.54-31.2 57.42-31.18 54.29-31.15 51.12-31.1L51.12-31.1Q50.63-31.1 49.87-31.08 49.12-31.05 48.29-31.05 47.46-31.05 46.7-31.01 45.94-30.96 45.5-30.86L45.5-30.86 45.36-35.94 86.37-36.18 86.32-30.96ZM122.6 0L113.42 0Q113.47-0.05 113.47-0.2L113.47-0.2Q113.47-0.54 113.2-1.34 112.93-2.15 112.61-3.05 112.3-3.96 111.96-4.76 111.61-5.57 111.47-5.91L111.47-5.91Q106.29-6.1 101.09-6.05 95.89-6.01 90.72-5.81L90.72-5.81Q90.57-5.47 90.23-4.66 89.89-3.86 89.57-2.98 89.25-2.1 88.98-1.32 88.71-0.54 88.71-0.2L88.71-0.2Q88.71-0.05 88.76 0L88.76 0 79.63 0Q79.92-0.34 80.34-1.1 80.75-1.86 81.17-2.71 81.58-3.56 81.97-4.37 82.37-5.18 82.56-5.62L82.56-5.62Q83.1-6.69 84.27-9.08 85.44-11.47 86.88-14.53 88.32-17.58 89.86-20.92 91.4-24.27 92.67-27.25 93.94-30.22 94.74-32.47 95.55-34.72 95.55-35.55L95.55-35.55Q95.55-35.64 95.52-35.77 95.5-35.89 95.4-35.89L95.4-35.89 106.83-35.89Q106.73-35.89 106.71-35.77 106.68-35.64 106.68-35.55L106.68-35.55Q106.68-34.72 107.49-32.47 108.29-30.22 109.56-27.25 110.83-24.27 112.37-20.92 113.91-17.58 115.35-14.53 116.79-11.47 117.94-9.08 119.08-6.69 119.62-5.62L119.62-5.62Q119.82-5.18 120.21-4.37 120.6-3.56 121.04-2.71 121.48-1.86 121.89-1.1 122.31-0.34 122.6 0L122.6 0ZM92.72-10.45L94.77-10.4Q102.04-10.4 109.37-10.69L109.37-10.69Q107.37-15.14 105.39-19.48 103.41-23.83 101.12-28.08L101.12-28.08Q98.77-23.78 96.77-19.34 94.77-14.89 92.72-10.45L92.72-10.45ZM161.76-35.99Q161.12-35.99 160.73-34.86 160.34-33.74 160.07-32.03 159.8-30.32 159.68-28.25 159.56-26.17 159.54-24.27 159.51-22.36 159.51-20.87 159.51-19.38 159.51-18.85L159.51-18.85Q159.51-15.97 159.46-13.11 159.41-10.25 159.41-7.32L159.41-7.32Q159.41-6.93 159.41-5.83 159.41-4.74 159.46-3.52 159.51-2.29 159.68-1.27 159.85-0.24 160.15 0L160.15 0 151.55 0Q150.92-0.73 150.36-1.54 149.79-2.34 149.21-3.13L149.21-3.13 145.5-8.11Q142.37-12.3 139.2-16.46 136.03-20.61 132.66-24.66L132.66-24.66Q132.46-23.05 132.41-21.41 132.36-19.78 132.31-18.16L132.31-18.16Q132.22-15.67 132.17-13.18 132.12-10.69 132.12-8.2L132.12-8.2Q132.12-7.81 132.12-6.57 132.12-5.32 132.17-3.96 132.22-2.59 132.34-1.42 132.46-0.24 132.7 0L132.7 0 124.16 0Q124.45-0.29 124.65-1.88 124.84-3.47 124.94-5.71 125.04-7.96 125.09-10.57 125.14-13.18 125.14-15.58 125.14-17.97 125.11-19.82 125.09-21.68 125.09-22.41L125.09-22.41Q125.09-22.85 125.11-23.97 125.14-25.1 125.11-26.56 125.09-28.03 125.01-29.64 124.94-31.25 124.75-32.62 124.55-33.98 124.21-34.91 123.87-35.84 123.38-35.99L123.38-35.99 135.2-35.99Q135.05-35.94 135.05-35.6L135.05-35.6Q135.05-34.77 136.15-32.71 137.25-30.66 138.98-28 140.71-25.34 142.79-22.36 144.86-19.38 146.79-16.7 148.72-14.01 150.26-11.94 151.8-9.86 152.48-8.98L152.48-8.98Q152.58-12.35 152.55-15.7 152.53-19.04 152.53-22.41L152.53-22.41Q152.53-22.85 152.55-23.97 152.58-25.1 152.55-26.56 152.53-28.03 152.46-29.64 152.38-31.25 152.19-32.62 151.99-33.98 151.65-34.91 151.31-35.84 150.82-35.99L150.82-35.99 161.76-35.99ZM184.7-4.74L184.7-4.74Q186.51-4.74 188.56-5.18 190.61-5.62 192.32-6.62 194.03-7.62 195.15-9.16 196.28-10.69 196.28-12.89L196.28-12.89Q196.28-16.41 196.37-19.9 196.47-23.39 196.47-26.9L196.47-26.9Q196.47-27.54 196.47-28.83 196.47-30.13 196.42-31.49 196.37-32.86 196.28-34.08 196.18-35.3 195.98-35.89L195.98-35.89 204.87-35.89Q204.43-35.45 204.21-34.69 203.99-33.94 203.89-33.08 203.8-32.23 203.8-31.42 203.8-30.62 203.8-30.03L203.8-30.03Q203.8-25.73 203.94-21.56 204.09-17.38 204.09-13.09L204.09-13.09Q204.09-10.64 203.21-8.72 202.33-6.79 200.82-5.32 199.3-3.86 197.33-2.81 195.35-1.76 193.18-1.1 191-0.44 188.78-0.15 186.56 0.15 184.56 0.15L184.56 0.15Q181.48 0.15 178.14-0.56 174.79-1.27 172.01-2.83 169.23-4.39 167.39-6.91 165.56-9.42 165.56-13.09L165.56-13.09Q165.56-17.38 165.71-21.56 165.86-25.73 165.86-29.98L165.86-29.98Q165.86-30.57 165.86-31.4 165.86-32.23 165.76-33.08 165.66-33.94 165.44-34.69 165.22-35.45 164.78-35.89L164.78-35.89 173.96-35.89Q173.77-35.3 173.67-34.08 173.57-32.86 173.52-31.49 173.47-30.13 173.47-28.83 173.47-27.54 173.47-26.9L173.47-26.9Q173.47-23.39 173.57-19.9 173.67-16.41 173.67-12.89L173.67-12.89Q173.67-10.69 174.69-9.16 175.72-7.62 177.31-6.64 178.89-5.66 180.85-5.2 182.8-4.74 184.7-4.74ZM244.13-0.1L208.68 0Q208.97-0.29 209.16-1.88 209.36-3.47 209.48-5.71 209.6-7.96 209.63-10.6 209.65-13.23 209.65-15.63 209.65-18.02 209.63-19.85 209.6-21.68 209.6-22.41L209.6-22.41Q209.6-22.85 209.6-23.93 209.6-25 209.58-26.32 209.56-27.64 209.51-29.13 209.46-30.62 209.34-31.88 209.21-33.15 209.02-34.11 208.82-35.06 208.53-35.4L208.53-35.4Q208.38-35.55 208.21-35.69 208.04-35.84 207.9-35.99L207.9-35.99 243.34-35.89 242.81-30.47Q242.56-30.57 241.61-30.62 240.66-30.66 239.29-30.71 237.92-30.76 236.36-30.79 234.8-30.81 233.41-30.81 232.02-30.81 230.94-30.81 229.87-30.81 229.48-30.81L229.48-30.81Q223.23-30.81 216.93-30.66L216.93-30.66Q216.68-28.22 216.64-25.81 216.59-23.39 216.59-20.9L216.59-20.9 239.05-21.14 239-15.92Q238.8-15.97 238.05-16.04 237.29-16.11 236.26-16.14 235.24-16.16 234.04-16.19 232.85-16.21 231.8-16.21 230.75-16.21 229.92-16.21 229.09-16.21 228.79-16.21L228.79-16.21Q222.69-16.21 216.54-16.06L216.54-16.06Q216.54-13.87 216.51-11.69 216.49-9.52 216.49-7.32L216.49-7.32 216.49-5.37Q219.96-5.22 223.4-5.22 226.84-5.22 230.31-5.22L230.31-5.22Q230.65-5.22 231.72-5.22 232.8-5.22 234.21-5.22 235.63-5.22 237.17-5.25 238.71-5.27 240.07-5.3 241.44-5.32 242.39-5.37 243.34-5.42 243.59-5.52L243.59-5.52 244.13-0.1ZM294.71 0Q294.9-0.24 294.9-0.83 294.9-1.42 294.9-1.71L294.9-1.71Q294.9-4.74 294.59-7.76 294.27-10.79 293.88-13.77L293.88-13.77Q293.59-16.5 293.22-19.43 292.85-22.36 292.32-25L292.32-25Q289.83-21.48 287.65-17.82 285.48-14.16 283.28-10.45L283.28-10.45 280.79-6.15Q280.4-5.52 280.04-4.86 279.67-4.2 279.23-3.61L279.23-3.61Q278.21-3.56 277.18-3.56 276.15-3.56 275.13-3.56L275.13-3.56Q274.1-3.56 273.05-3.54 272-3.52 270.98-3.61L270.98-3.61Q270.59-4.2 270.22-4.86 269.86-5.52 269.46-6.2L269.46-6.2 266.93-10.5Q264.73-14.16 262.56-17.82 260.38-21.48 257.89-25L257.89-25Q257.36-22.36 257.01-19.43 256.67-16.5 256.33-13.77L256.33-13.77Q255.94-10.79 255.62-7.76 255.3-4.74 255.3-1.71L255.3-1.71Q255.3-1.42 255.3-0.83 255.3-0.24 255.55 0L255.55 0 246.61 0Q246.91-0.29 247.2-1.49 247.49-2.69 247.76-4.35 248.03-6.01 248.25-7.91 248.47-9.81 248.64-11.55 248.81-13.28 248.93-14.6 249.05-15.92 249.1-16.41L249.1-16.41Q249.45-20.21 249.86-24.12 250.28-28.03 250.28-31.84L250.28-31.84Q250.28-32.13 250.28-32.79 250.28-33.45 250.18-34.11 250.08-34.77 249.86-35.3 249.64-35.84 249.25-35.99L249.25-35.99 261.16-35.99Q260.92-35.84 260.92-35.5L260.92-35.5Q260.92-34.62 261.8-32.67 262.68-30.71 264.05-28.2 265.41-25.68 267.1-22.92 268.78-20.17 270.34-17.65 271.91-15.14 273.2-13.13 274.49-11.13 275.13-10.21L275.13-10.21Q275.71-11.13 277.01-13.13 278.3-15.14 279.89-17.65 281.48-20.17 283.14-22.95 284.8-25.73 286.16-28.22 287.53-30.71 288.41-32.67 289.29-34.62 289.29-35.5L289.29-35.5Q289.29-35.84 289.09-35.99L289.09-35.99 301.01-35.99Q300.57-35.84 300.35-35.3 300.13-34.77 300.03-34.11 299.93-33.45 299.93-32.79 299.93-32.13 299.93-31.84L299.93-31.84Q299.93-28.03 300.35-24.12 300.76-20.21 301.15-16.41L301.15-16.41Q301.2-15.92 301.3-14.6 301.4-13.28 301.57-11.55 301.74-9.81 301.96-7.91 302.18-6.01 302.45-4.35 302.72-2.69 303.01-1.49 303.3-0.29 303.64 0L303.64 0 294.71 0Z" opacity="1" transform="matrix(1,0,0,1,0,0)" fill="black" class="wordmark-text-0" id="SvgjsPath1996"></path></svg></g></svg></g><g transform="matrix(1,0,0,1,0,35.5004720279627)"><svg viewBox="0 0 244.43135999999998 17.74914464262792" height="17.74914464262792" width="244.43135999999998"><g transform="matrix(1,0,0,1,0,0)"><svg width="244.43135999999998" viewBox="1.95 -34.2 486.82 35.35" height="17.74914464262792" data-palette-color="url(#bc149d6e-7490-457d-8d22-12fd0e15b87b)"><path d="M21.85-15.65L11.45-15.65 11.45-1.65 15.8-1.2 15.8 0 1.95 0 1.95-1.2 6.3-1.65 6.3-31.7 1.95-32.3 1.95-33.4 26.2-33.4 26.25-26.3 24.95-26.3 23.25-31.6 11.45-31.75 11.45-17.45 21.85-17.45 23.4-21.15 24.4-21.15 24.4-11.85 23.35-11.85 21.85-15.65ZM69.04-1.2L69.04 0 55.54 0 55.54-1.05 59.44-1.65 55.04-13.15 43.79-13.15 39.59-2.5 44.04-1.2 44.04 0 33.59 0 33.59-1.2 37.39-2.5 49.69-33.4 52.14-33.4 65.19-1.65 69.04-1.2ZM44.49-15L54.29-15 49.39-27.15 44.49-15ZM98.44-26.05L96.74-31.75Q94.04-32.7 91.19-32.7 88.34-32.7 86.19-31.08 84.04-29.45 84.04-26.25L84.04-26.25Q84.04-23.15 86.69-21.5L86.69-21.5Q88.14-20.6 89.06-20.2 89.99-19.8 91.76-19.15 93.54-18.5 94.19-18.23 94.84-17.95 96.11-17.38 97.39-16.8 98.01-16.35 98.64-15.9 99.54-15.1 100.44-14.3 100.89-13.5L100.89-13.5Q101.99-11.45 101.99-9.05L101.99-9.05Q101.99-4.8 98.54-2.1 95.09 0.6 89.59 0.6L89.59 0.6Q85.39 0.6 81.74-0.8L81.74-0.8Q79.94-1.45 78.79-2.6 77.64-3.75 77.64-5.25L77.64-5.25Q77.64-7.7 81.19-8.6L81.19-8.6Q81.74-5.6 83.29-3.75 84.84-1.9 86.51-1.3 88.19-0.7 90.61-0.7 93.04-0.7 95.19-2.27 97.34-3.85 97.34-7.45L97.34-7.45Q97.34-10.2 94.84-11.95L94.84-11.95Q92.84-13.3 89.91-14.5 86.99-15.7 85.99-16.13 84.99-16.55 83.41-17.48 81.84-18.4 81.09-19.3L81.09-19.3Q79.14-21.65 79.14-24.7L79.14-24.7Q79.14-29.4 82.49-31.8 85.84-34.2 91.74-34.2L91.74-34.2Q95.29-34.2 99.99-33.4L99.99-33.4 99.99-26.05 98.44-26.05ZM150.58-1.2L150.58 0 136.73 0 136.73-1.2 141.08-1.65 141.08-16.5 123.33-16.5 123.33-1.65 127.68-1.2 127.68 0 113.83 0 113.83-1.2 118.18-1.65 118.18-31.75 113.83-32.2 113.83-33.4 127.68-33.4 127.68-32.2 123.33-31.75 123.33-18.3 141.08-18.3 141.08-31.75 136.73-32.2 136.73-33.4 150.58-33.4 150.58-32.2 146.23-31.75 146.23-1.65 150.58-1.2ZM176.07-1.2L176.07 0 162.22 0 162.22-1.2 166.57-1.65 166.57-31.75 162.22-32.2 162.22-33.4 176.07-33.4 176.07-32.2 171.72-31.75 171.72-1.65 176.07-1.2ZM221.37-16.8Q221.37-9.3 216.82-4.38 212.27 0.55 204.62 0.55 196.97 0.55 192.39-4.38 187.82-9.3 187.82-16.8 187.82-24.3 192.39-29.23 196.97-34.15 204.62-34.15 212.27-34.15 216.82-29.23 221.37-24.3 221.37-16.8ZM204.67-1L204.67-1Q215.27-1 215.27-16.8L215.27-16.8Q215.27-24.4 212.84-28.5 210.42-32.6 204.62-32.6 198.82-32.6 196.37-28.53 193.92-24.45 193.92-16.8L193.92-16.8Q193.92-1 204.67-1ZM258.61-32.2L258.61-33.4 268.71-33.4 268.71-32.2 265.21-31.05 265.21 0 262.46 0 239.56-27.45 239.56-2.45 243.71-1.2 243.71 0 233.41 0 233.41-1.2 237.41-2.45 237.41-31.75 233.06-32.25 233.06-33.4 241.26-33.4 262.46-7.75 262.46-31.05 258.61-32.2ZM322-26.05L320.3-31.75Q317.6-32.7 314.75-32.7 311.9-32.7 309.75-31.08 307.6-29.45 307.6-26.25L307.6-26.25Q307.6-23.15 310.25-21.5L310.25-21.5Q311.7-20.6 312.62-20.2 313.55-19.8 315.32-19.15 317.1-18.5 317.75-18.23 318.4-17.95 319.67-17.38 320.95-16.8 321.57-16.35 322.2-15.9 323.1-15.1 324-14.3 324.45-13.5L324.45-13.5Q325.55-11.45 325.55-9.05L325.55-9.05Q325.55-4.8 322.1-2.1 318.65 0.6 313.15 0.6L313.15 0.6Q308.95 0.6 305.3-0.8L305.3-0.8Q303.5-1.45 302.35-2.6 301.2-3.75 301.2-5.25L301.2-5.25Q301.2-7.7 304.75-8.6L304.75-8.6Q305.3-5.6 306.85-3.75 308.4-1.9 310.07-1.3 311.75-0.7 314.17-0.7 316.6-0.7 318.75-2.27 320.9-3.85 320.9-7.45L320.9-7.45Q320.9-10.2 318.4-11.95L318.4-11.95Q316.4-13.3 313.47-14.5 310.55-15.7 309.55-16.13 308.55-16.55 306.97-17.48 305.4-18.4 304.65-19.3L304.65-19.3Q302.7-21.65 302.7-24.7L302.7-24.7Q302.7-29.4 306.05-31.8 309.4-34.2 315.3-34.2L315.3-34.2Q318.85-34.2 323.55-33.4L323.55-33.4 323.55-26.05 322-26.05ZM365.69-33.35L365.69-25.8 364.19-25.8 362.49-31.55 353.64-31.65 353.64-1.65 358.29-1.2 358.29 0 343.84 0 343.84-1.2 348.49-1.65 348.49-31.65 339.64-31.55 337.94-25.8 336.49-25.8 336.49-33.35 351.09-33.45 365.69-33.35ZM410.23-16.8Q410.23-9.3 405.68-4.38 401.13 0.55 393.48 0.55 385.83 0.55 381.26-4.38 376.68-9.3 376.68-16.8 376.68-24.3 381.26-29.23 385.83-34.15 393.48-34.15 401.13-34.15 405.68-29.23 410.23-24.3 410.23-16.8ZM393.53-1L393.53-1Q404.13-1 404.13-16.8L404.13-16.8Q404.13-24.4 401.71-28.5 399.28-32.6 393.48-32.6 387.68-32.6 385.23-28.53 382.78-24.45 382.78-16.8L382.78-16.8Q382.78-1 393.53-1ZM431.33-31.95L431.33-17.6 433.83-17.6Q442.78-17.6 442.78-25.1L442.78-25.1Q442.78-28.8 441.03-30.48 439.28-32.15 435.43-32.15L435.43-32.15Q433.93-32.15 431.33-31.95L431.33-31.95ZM428.68-33.5L431.23-33.5 436.93-33.65Q448.28-33.65 448.28-25.1L448.28-25.1Q448.28-21.4 445.75-19.03 443.23-16.65 439.23-16.65L439.23-16.65Q438.88-16.65 437.98-16.75L437.98-16.75 437.98-16.65Q443.33-15.9 445.35-13.18 447.38-10.45 447.38-4.85L447.38-4.85Q447.38-1.35 448.68-0.8L448.68-0.8Q449.28-0.4 450.35-0.4 451.43-0.4 453.13-1.05L453.13-1.05 453.13 0.2Q450.48 1.15 448.28 1.15L448.28 1.15Q443.38 1.15 442.23-3.05L442.23-3.05Q441.93-4.15 441.9-6.15 441.88-8.15 441.73-9.7 441.58-11.25 441.03-12.8L441.03-12.8Q439.78-16.15 434.13-16.15L434.13-16.15 431.33-16.15 431.33-1.45 435.18-1.1 435.18 0 422.43 0 422.43-1.05 426.18-1.45 426.18-31.85 421.83-32.35 421.83-33.65Q425.03-33.5 428.68-33.5L428.68-33.5ZM488.17 0L462.62 0 462.62-1.2 466.97-1.65 466.97-31.75 462.62-32.3 462.62-33.4 486.57-33.4 486.62-26.3 485.32-26.3 483.62-31.6 472.12-31.75 472.12-18.3 482.22-18.3 483.77-22 484.77-22 484.77-12.7 483.72-12.7 482.22-16.5 472.12-16.5 472.12-1.6 485.12-1.75 487.47-7.45 488.77-7.45 488.17 0Z" opacity="1" transform="matrix(1,0,0,1,0,0)" fill="black" class="slogan-text-1" id="SvgjsPath1995"></path></svg></g></svg></g></svg></g></svg></g></svg></g></svg></g></svg></g><path d="M199.424 90.975L199.424 26.611 393.402 26.611 393.402 220.589 199.424 220.589 199.424 156.225 202.014 156.225 202.014 217.999 390.812 217.999 390.812 29.201 202.014 29.201 202.014 90.975Z" fill="black" stroke="transparent"></path></svg></g><defs><mask></mask></defs></svg><rect width="395.52" height="247.2" fill="black" stroke="none" visibility="hidden"></rect></g></mask><mask><g id="SvgjsG1994"><svg viewBox="0 0 395.52 247.2" height="247.2" width="395.52"><g><svg></svg></g><g><svg viewBox="0 0 395.52 247.2" height="247.2" width="395.52"><g transform="matrix(1,0,0,1,75.54432,96.97519166470468)"><svg viewBox="0 0 244.43135999999998 53.24961667059062" height="53.24961667059062" width="244.43135999999998"><g><svg viewBox="0 0 244.43135999999998 53.24961667059062" height="53.24961667059062" width="244.43135999999998"><g><svg viewBox="0 0 244.43135999999998 53.24961667059062" height="53.24961667059062" width="244.43135999999998"><g><svg viewBox="0 0 244.43135999999998 53.24961667059062" height="53.24961667059062" width="244.43135999999998"><g id="SvgjsG1993"><svg viewBox="0 0 244.43135999999998 53.24961667059062" height="53.24961667059062" width="244.43135999999998" id="SvgjsSvg1992"><g><svg viewBox="0 0 244.43135999999998 28.720298774478835" height="28.720298774478835" width="244.43135999999998"><g transform="matrix(1,0,0,1,0,0)"><svg width="244.43135999999998" viewBox="-5.52 -36.18 309.15999999999997 36.33" height="28.720298774478835" data-palette-color="url(#f9ee606c-f850-4014-b262-08b428dc1fde)"></svg></g></svg></g><g transform="matrix(1,0,0,1,0,35.5004720279627)"><svg viewBox="0 0 244.43135999999998 17.74914464262792" height="17.74914464262792" width="244.43135999999998"><g transform="matrix(1,0,0,1,0,0)"><svg width="244.43135999999998" viewBox="1.95 -34.2 486.82 35.35" height="17.74914464262792" data-palette-color="url(#bc149d6e-7490-457d-8d22-12fd0e15b87b)"><path d="M21.85-15.65L11.45-15.65 11.45-1.65 15.8-1.2 15.8 0 1.95 0 1.95-1.2 6.3-1.65 6.3-31.7 1.95-32.3 1.95-33.4 26.2-33.4 26.25-26.3 24.95-26.3 23.25-31.6 11.45-31.75 11.45-17.45 21.85-17.45 23.4-21.15 24.4-21.15 24.4-11.85 23.35-11.85 21.85-15.65ZM69.04-1.2L69.04 0 55.54 0 55.54-1.05 59.44-1.65 55.04-13.15 43.79-13.15 39.59-2.5 44.04-1.2 44.04 0 33.59 0 33.59-1.2 37.39-2.5 49.69-33.4 52.14-33.4 65.19-1.65 69.04-1.2ZM44.49-15L54.29-15 49.39-27.15 44.49-15ZM98.44-26.05L96.74-31.75Q94.04-32.7 91.19-32.7 88.34-32.7 86.19-31.08 84.04-29.45 84.04-26.25L84.04-26.25Q84.04-23.15 86.69-21.5L86.69-21.5Q88.14-20.6 89.06-20.2 89.99-19.8 91.76-19.15 93.54-18.5 94.19-18.23 94.84-17.95 96.11-17.38 97.39-16.8 98.01-16.35 98.64-15.9 99.54-15.1 100.44-14.3 100.89-13.5L100.89-13.5Q101.99-11.45 101.99-9.05L101.99-9.05Q101.99-4.8 98.54-2.1 95.09 0.6 89.59 0.6L89.59 0.6Q85.39 0.6 81.74-0.8L81.74-0.8Q79.94-1.45 78.79-2.6 77.64-3.75 77.64-5.25L77.64-5.25Q77.64-7.7 81.19-8.6L81.19-8.6Q81.74-5.6 83.29-3.75 84.84-1.9 86.51-1.3 88.19-0.7 90.61-0.7 93.04-0.7 95.19-2.27 97.34-3.85 97.34-7.45L97.34-7.45Q97.34-10.2 94.84-11.95L94.84-11.95Q92.84-13.3 89.91-14.5 86.99-15.7 85.99-16.13 84.99-16.55 83.41-17.48 81.84-18.4 81.09-19.3L81.09-19.3Q79.14-21.65 79.14-24.7L79.14-24.7Q79.14-29.4 82.49-31.8 85.84-34.2 91.74-34.2L91.74-34.2Q95.29-34.2 99.99-33.4L99.99-33.4 99.99-26.05 98.44-26.05ZM150.58-1.2L150.58 0 136.73 0 136.73-1.2 141.08-1.65 141.08-16.5 123.33-16.5 123.33-1.65 127.68-1.2 127.68 0 113.83 0 113.83-1.2 118.18-1.65 118.18-31.75 113.83-32.2 113.83-33.4 127.68-33.4 127.68-32.2 123.33-31.75 123.33-18.3 141.08-18.3 141.08-31.75 136.73-32.2 136.73-33.4 150.58-33.4 150.58-32.2 146.23-31.75 146.23-1.65 150.58-1.2ZM176.07-1.2L176.07 0 162.22 0 162.22-1.2 166.57-1.65 166.57-31.75 162.22-32.2 162.22-33.4 176.07-33.4 176.07-32.2 171.72-31.75 171.72-1.65 176.07-1.2ZM221.37-16.8Q221.37-9.3 216.82-4.38 212.27 0.55 204.62 0.55 196.97 0.55 192.39-4.38 187.82-9.3 187.82-16.8 187.82-24.3 192.39-29.23 196.97-34.15 204.62-34.15 212.27-34.15 216.82-29.23 221.37-24.3 221.37-16.8ZM204.67-1L204.67-1Q215.27-1 215.27-16.8L215.27-16.8Q215.27-24.4 212.84-28.5 210.42-32.6 204.62-32.6 198.82-32.6 196.37-28.53 193.92-24.45 193.92-16.8L193.92-16.8Q193.92-1 204.67-1ZM258.61-32.2L258.61-33.4 268.71-33.4 268.71-32.2 265.21-31.05 265.21 0 262.46 0 239.56-27.45 239.56-2.45 243.71-1.2 243.71 0 233.41 0 233.41-1.2 237.41-2.45 237.41-31.75 233.06-32.25 233.06-33.4 241.26-33.4 262.46-7.75 262.46-31.05 258.61-32.2ZM322-26.05L320.3-31.75Q317.6-32.7 314.75-32.7 311.9-32.7 309.75-31.08 307.6-29.45 307.6-26.25L307.6-26.25Q307.6-23.15 310.25-21.5L310.25-21.5Q311.7-20.6 312.62-20.2 313.55-19.8 315.32-19.15 317.1-18.5 317.75-18.23 318.4-17.95 319.67-17.38 320.95-16.8 321.57-16.35 322.2-15.9 323.1-15.1 324-14.3 324.45-13.5L324.45-13.5Q325.55-11.45 325.55-9.05L325.55-9.05Q325.55-4.8 322.1-2.1 318.65 0.6 313.15 0.6L313.15 0.6Q308.95 0.6 305.3-0.8L305.3-0.8Q303.5-1.45 302.35-2.6 301.2-3.75 301.2-5.25L301.2-5.25Q301.2-7.7 304.75-8.6L304.75-8.6Q305.3-5.6 306.85-3.75 308.4-1.9 310.07-1.3 311.75-0.7 314.17-0.7 316.6-0.7 318.75-2.27 320.9-3.85 320.9-7.45L320.9-7.45Q320.9-10.2 318.4-11.95L318.4-11.95Q316.4-13.3 313.47-14.5 310.55-15.7 309.55-16.13 308.55-16.55 306.97-17.48 305.4-18.4 304.65-19.3L304.65-19.3Q302.7-21.65 302.7-24.7L302.7-24.7Q302.7-29.4 306.05-31.8 309.4-34.2 315.3-34.2L315.3-34.2Q318.85-34.2 323.55-33.4L323.55-33.4 323.55-26.05 322-26.05ZM365.69-33.35L365.69-25.8 364.19-25.8 362.49-31.55 353.64-31.65 353.64-1.65 358.29-1.2 358.29 0 343.84 0 343.84-1.2 348.49-1.65 348.49-31.65 339.64-31.55 337.94-25.8 336.49-25.8 336.49-33.35 351.09-33.45 365.69-33.35ZM410.23-16.8Q410.23-9.3 405.68-4.38 401.13 0.55 393.48 0.55 385.83 0.55 381.26-4.38 376.68-9.3 376.68-16.8 376.68-24.3 381.26-29.23 385.83-34.15 393.48-34.15 401.13-34.15 405.68-29.23 410.23-24.3 410.23-16.8ZM393.53-1L393.53-1Q404.13-1 404.13-16.8L404.13-16.8Q404.13-24.4 401.71-28.5 399.28-32.6 393.48-32.6 387.68-32.6 385.23-28.53 382.78-24.45 382.78-16.8L382.78-16.8Q382.78-1 393.53-1ZM431.33-31.95L431.33-17.6 433.83-17.6Q442.78-17.6 442.78-25.1L442.78-25.1Q442.78-28.8 441.03-30.48 439.28-32.15 435.43-32.15L435.43-32.15Q433.93-32.15 431.33-31.95L431.33-31.95ZM428.68-33.5L431.23-33.5 436.93-33.65Q448.28-33.65 448.28-25.1L448.28-25.1Q448.28-21.4 445.75-19.03 443.23-16.65 439.23-16.65L439.23-16.65Q438.88-16.65 437.98-16.75L437.98-16.75 437.98-16.65Q443.33-15.9 445.35-13.18 447.38-10.45 447.38-4.85L447.38-4.85Q447.38-1.35 448.68-0.8L448.68-0.8Q449.28-0.4 450.35-0.4 451.43-0.4 453.13-1.05L453.13-1.05 453.13 0.2Q450.48 1.15 448.28 1.15L448.28 1.15Q443.38 1.15 442.23-3.05L442.23-3.05Q441.93-4.15 441.9-6.15 441.88-8.15 441.73-9.7 441.58-11.25 441.03-12.8L441.03-12.8Q439.78-16.15 434.13-16.15L434.13-16.15 431.33-16.15 431.33-1.45 435.18-1.1 435.18 0 422.43 0 422.43-1.05 426.18-1.45 426.18-31.85 421.83-32.35 421.83-33.65Q425.03-33.5 428.68-33.5L428.68-33.5ZM488.17 0L462.62 0 462.62-1.2 466.97-1.65 466.97-31.75 462.62-32.3 462.62-33.4 486.57-33.4 486.62-26.3 485.32-26.3 483.62-31.6 472.12-31.75 472.12-18.3 482.22-18.3 483.77-22 484.77-22 484.77-12.7 483.72-12.7 482.22-16.5 472.12-16.5 472.12-1.6 485.12-1.75 487.47-7.45 488.77-7.45 488.17 0Z" opacity="1" transform="matrix(1,0,0,1,0,0)" fill="black" class="slogan-text-1" id="SvgjsPath1991"></path></svg></g></svg></g></svg></g></svg></g></svg></g></svg></g></svg></g><path d="M199.424 90.975L199.424 26.611 393.402 26.611 393.402 220.589 199.424 220.589 199.424 156.225 202.014 156.225 202.014 217.999 390.812 217.999 390.812 29.201 202.014 29.201 202.014 90.975Z" fill="black" stroke="transparent"></path></svg></g><defs><mask></mask></defs><mask><g id="SvgjsG1990"><svg viewBox="0 0 395.52 247.2" height="247.2" width="395.52"><g><svg></svg></g><g><svg viewBox="0 0 395.52 247.2" height="247.2" width="395.52"><g transform="matrix(1,0,0,1,75.54432,96.97519166470468)"><svg viewBox="0 0 244.43135999999998 53.24961667059062" height="53.24961667059062" width="244.43135999999998"><g><svg viewBox="0 0 244.43135999999998 53.24961667059062" height="53.24961667059062" width="244.43135999999998"><g><svg viewBox="0 0 244.43135999999998 53.24961667059062" height="53.24961667059062" width="244.43135999999998"><g><svg viewBox="0 0 244.43135999999998 53.24961667059062" height="53.24961667059062" width="244.43135999999998"><g id="SvgjsG1989"><svg viewBox="0 0 244.43135999999998 53.24961667059062" height="53.24961667059062" width="244.43135999999998" id="SvgjsSvg1988"><g><svg viewBox="0 0 244.43135999999998 28.720298774478835" height="28.720298774478835" width="244.43135999999998"><g transform="matrix(1,0,0,1,0,0)"><svg width="244.43135999999998" viewBox="-5.52 -36.18 309.15999999999997 36.33" height="28.720298774478835" data-palette-color="url(#f9ee606c-f850-4014-b262-08b428dc1fde)"><path d="M35.45-30.96Q35.25-31.05 34.16-31.1 33.06-31.15 31.52-31.18 29.98-31.2 28.2-31.23 26.42-31.25 24.83-31.25 23.24-31.25 22.05-31.25 20.85-31.25 20.46-31.25L20.46-31.25Q20.07-27.59 20.04-23.93 20.02-20.26 20.02-16.6L20.02-16.6Q20.02-14.26 19.97-11.96 19.92-9.67 19.92-7.32L19.92-7.32Q19.92-6.93 19.92-5.83 19.92-4.74 19.97-3.52 20.02-2.29 20.19-1.27 20.36-0.24 20.65 0L20.65 0 12.11 0Q12.45-0.29 12.62-1.88 12.79-3.47 12.92-5.71 13.04-7.96 13.06-10.6 13.09-13.23 13.09-15.63 13.09-18.02 13.06-19.85 13.04-21.68 13.04-22.41L13.04-22.41Q13.04-24.61 13.01-26.81 12.99-29 12.84-31.2L12.84-31.2Q9.67-31.2 6.54-31.18 3.42-31.15 0.24-31.1L0.24-31.1Q-0.24-31.1-1-31.08-1.76-31.05-2.59-31.05-3.42-31.05-4.17-31.01-4.93-30.96-5.37-30.86L-5.37-30.86-5.52-35.94 35.5-36.18 35.45-30.96ZM39.26 0Q39.55-0.29 39.74-1.88 39.94-3.47 40.06-5.71 40.18-7.96 40.21-10.6 40.23-13.23 40.23-15.63 40.23-18.02 40.21-19.85 40.18-21.68 40.18-22.41L40.18-22.41Q40.18-22.85 40.21-23.97 40.23-25.1 40.21-26.56 40.18-28.03 40.11-29.64 40.04-31.25 39.84-32.62 39.65-33.98 39.3-34.91 38.96-35.84 38.47-35.99L38.47-35.99 49.41-35.99Q48.78-35.99 48.36-34.86 47.95-33.74 47.7-32.03 47.46-30.32 47.34-28.25 47.21-26.17 47.17-24.27 47.12-22.36 47.12-20.87 47.12-19.38 47.12-18.85L47.12-18.85Q47.12-15.97 47.09-13.11 47.07-10.25 47.07-7.32L47.07-7.32Q47.07-6.93 47.07-5.81 47.07-4.69 47.12-3.49 47.17-2.29 47.34-1.27 47.51-0.24 47.8 0L47.8 0 39.26 0ZM86.32-30.96Q86.13-31.05 85.03-31.1 83.93-31.15 82.39-31.18 80.85-31.2 79.07-31.23 77.29-31.25 75.7-31.25 74.12-31.25 72.92-31.25 71.72-31.25 71.33-31.25L71.33-31.25Q70.94-27.59 70.92-23.93 70.89-20.26 70.89-16.6L70.89-16.6Q70.89-14.26 70.84-11.96 70.8-9.67 70.8-7.32L70.8-7.32Q70.8-6.93 70.8-5.83 70.8-4.74 70.84-3.52 70.89-2.29 71.06-1.27 71.24-0.24 71.53 0L71.53 0 62.98 0Q63.33-0.29 63.5-1.88 63.67-3.47 63.79-5.71 63.91-7.96 63.94-10.6 63.96-13.23 63.96-15.63 63.96-18.02 63.94-19.85 63.91-21.68 63.91-22.41L63.91-22.41Q63.91-24.61 63.89-26.81 63.86-29 63.72-31.2L63.72-31.2Q60.54-31.2 57.42-31.18 54.29-31.15 51.12-31.1L51.12-31.1Q50.63-31.1 49.87-31.08 49.12-31.05 48.29-31.05 47.46-31.05 46.7-31.01 45.94-30.96 45.5-30.86L45.5-30.86 45.36-35.94 86.37-36.18 86.32-30.96ZM122.6 0L113.42 0Q113.47-0.05 113.47-0.2L113.47-0.2Q113.47-0.54 113.2-1.34 112.93-2.15 112.61-3.05 112.3-3.96 111.96-4.76 111.61-5.57 111.47-5.91L111.47-5.91Q106.29-6.1 101.09-6.05 95.89-6.01 90.72-5.81L90.72-5.81Q90.57-5.47 90.23-4.66 89.89-3.86 89.57-2.98 89.25-2.1 88.98-1.32 88.71-0.54 88.71-0.2L88.71-0.2Q88.71-0.05 88.76 0L88.76 0 79.63 0Q79.92-0.34 80.34-1.1 80.75-1.86 81.17-2.71 81.58-3.56 81.97-4.37 82.37-5.18 82.56-5.62L82.56-5.62Q83.1-6.69 84.27-9.08 85.44-11.47 86.88-14.53 88.32-17.58 89.86-20.92 91.4-24.27 92.67-27.25 93.94-30.22 94.74-32.47 95.55-34.72 95.55-35.55L95.55-35.55Q95.55-35.64 95.52-35.77 95.5-35.89 95.4-35.89L95.4-35.89 106.83-35.89Q106.73-35.89 106.71-35.77 106.68-35.64 106.68-35.55L106.68-35.55Q106.68-34.72 107.49-32.47 108.29-30.22 109.56-27.25 110.83-24.27 112.37-20.92 113.91-17.58 115.35-14.53 116.79-11.47 117.94-9.08 119.08-6.69 119.62-5.62L119.62-5.62Q119.82-5.18 120.21-4.37 120.6-3.56 121.04-2.71 121.48-1.86 121.89-1.1 122.31-0.34 122.6 0L122.6 0ZM92.72-10.45L94.77-10.4Q102.04-10.4 109.37-10.69L109.37-10.69Q107.37-15.14 105.39-19.48 103.41-23.83 101.12-28.08L101.12-28.08Q98.77-23.78 96.77-19.34 94.77-14.89 92.72-10.45L92.72-10.45ZM161.76-35.99Q161.12-35.99 160.73-34.86 160.34-33.74 160.07-32.03 159.8-30.32 159.68-28.25 159.56-26.17 159.54-24.27 159.51-22.36 159.51-20.87 159.51-19.38 159.51-18.85L159.51-18.85Q159.51-15.97 159.46-13.11 159.41-10.25 159.41-7.32L159.41-7.32Q159.41-6.93 159.41-5.83 159.41-4.74 159.46-3.52 159.51-2.29 159.68-1.27 159.85-0.24 160.15 0L160.15 0 151.55 0Q150.92-0.73 150.36-1.54 149.79-2.34 149.21-3.13L149.21-3.13 145.5-8.11Q142.37-12.3 139.2-16.46 136.03-20.61 132.66-24.66L132.66-24.66Q132.46-23.05 132.41-21.41 132.36-19.78 132.31-18.16L132.31-18.16Q132.22-15.67 132.17-13.18 132.12-10.69 132.12-8.2L132.12-8.2Q132.12-7.81 132.12-6.57 132.12-5.32 132.17-3.96 132.22-2.59 132.34-1.42 132.46-0.24 132.7 0L132.7 0 124.16 0Q124.45-0.29 124.65-1.88 124.84-3.47 124.94-5.71 125.04-7.96 125.09-10.57 125.14-13.18 125.14-15.58 125.14-17.97 125.11-19.82 125.09-21.68 125.09-22.41L125.09-22.41Q125.09-22.85 125.11-23.97 125.14-25.1 125.11-26.56 125.09-28.03 125.01-29.64 124.94-31.25 124.75-32.62 124.55-33.98 124.21-34.91 123.87-35.84 123.38-35.99L123.38-35.99 135.2-35.99Q135.05-35.94 135.05-35.6L135.05-35.6Q135.05-34.77 136.15-32.71 137.25-30.66 138.98-28 140.71-25.34 142.79-22.36 144.86-19.38 146.79-16.7 148.72-14.01 150.26-11.94 151.8-9.86 152.48-8.98L152.48-8.98Q152.58-12.35 152.55-15.7 152.53-19.04 152.53-22.41L152.53-22.41Q152.53-22.85 152.55-23.97 152.58-25.1 152.55-26.56 152.53-28.03 152.46-29.64 152.38-31.25 152.19-32.62 151.99-33.98 151.65-34.91 151.31-35.84 150.82-35.99L150.82-35.99 161.76-35.99ZM184.7-4.74L184.7-4.74Q186.51-4.74 188.56-5.18 190.61-5.62 192.32-6.62 194.03-7.62 195.15-9.16 196.28-10.69 196.28-12.89L196.28-12.89Q196.28-16.41 196.37-19.9 196.47-23.39 196.47-26.9L196.47-26.9Q196.47-27.54 196.47-28.83 196.47-30.13 196.42-31.49 196.37-32.86 196.28-34.08 196.18-35.3 195.98-35.89L195.98-35.89 204.87-35.89Q204.43-35.45 204.21-34.69 203.99-33.94 203.89-33.08 203.8-32.23 203.8-31.42 203.8-30.62 203.8-30.03L203.8-30.03Q203.8-25.73 203.94-21.56 204.09-17.38 204.09-13.09L204.09-13.09Q204.09-10.64 203.21-8.72 202.33-6.79 200.82-5.32 199.3-3.86 197.33-2.81 195.35-1.76 193.18-1.1 191-0.44 188.78-0.15 186.56 0.15 184.56 0.15L184.56 0.15Q181.48 0.15 178.14-0.56 174.79-1.27 172.01-2.83 169.23-4.39 167.39-6.91 165.56-9.42 165.56-13.09L165.56-13.09Q165.56-17.38 165.71-21.56 165.86-25.73 165.86-29.98L165.86-29.98Q165.86-30.57 165.86-31.4 165.86-32.23 165.76-33.08 165.66-33.94 165.44-34.69 165.22-35.45 164.78-35.89L164.78-35.89 173.96-35.89Q173.77-35.3 173.67-34.08 173.57-32.86 173.52-31.49 173.47-30.13 173.47-28.83 173.47-27.54 173.47-26.9L173.47-26.9Q173.47-23.39 173.57-19.9 173.67-16.41 173.67-12.89L173.67-12.89Q173.67-10.69 174.69-9.16 175.72-7.62 177.31-6.64 178.89-5.66 180.85-5.2 182.8-4.74 184.7-4.74ZM244.13-0.1L208.68 0Q208.97-0.29 209.16-1.88 209.36-3.47 209.48-5.71 209.6-7.96 209.63-10.6 209.65-13.23 209.65-15.63 209.65-18.02 209.63-19.85 209.6-21.68 209.6-22.41L209.6-22.41Q209.6-22.85 209.6-23.93 209.6-25 209.58-26.32 209.56-27.64 209.51-29.13 209.46-30.62 209.34-31.88 209.21-33.15 209.02-34.11 208.82-35.06 208.53-35.4L208.53-35.4Q208.38-35.55 208.21-35.69 208.04-35.84 207.9-35.99L207.9-35.99 243.34-35.89 242.81-30.47Q242.56-30.57 241.61-30.62 240.66-30.66 239.29-30.71 237.92-30.76 236.36-30.79 234.8-30.81 233.41-30.81 232.02-30.81 230.94-30.81 229.87-30.81 229.48-30.81L229.48-30.81Q223.23-30.81 216.93-30.66L216.93-30.66Q216.68-28.22 216.64-25.81 216.59-23.39 216.59-20.9L216.59-20.9 239.05-21.14 239-15.92Q238.8-15.97 238.05-16.04 237.29-16.11 236.26-16.14 235.24-16.16 234.04-16.19 232.85-16.21 231.8-16.21 230.75-16.21 229.92-16.21 229.09-16.21 228.79-16.21L228.79-16.21Q222.69-16.21 216.54-16.06L216.54-16.06Q216.54-13.87 216.51-11.69 216.49-9.52 216.49-7.32L216.49-7.32 216.49-5.37Q219.96-5.22 223.4-5.22 226.84-5.22 230.31-5.22L230.31-5.22Q230.65-5.22 231.72-5.22 232.8-5.22 234.21-5.22 235.63-5.22 237.17-5.25 238.71-5.27 240.07-5.3 241.44-5.32 242.39-5.37 243.34-5.42 243.59-5.52L243.59-5.52 244.13-0.1ZM294.71 0Q294.9-0.24 294.9-0.83 294.9-1.42 294.9-1.71L294.9-1.71Q294.9-4.74 294.59-7.76 294.27-10.79 293.88-13.77L293.88-13.77Q293.59-16.5 293.22-19.43 292.85-22.36 292.32-25L292.32-25Q289.83-21.48 287.65-17.82 285.48-14.16 283.28-10.45L283.28-10.45 280.79-6.15Q280.4-5.52 280.04-4.86 279.67-4.2 279.23-3.61L279.23-3.61Q278.21-3.56 277.18-3.56 276.15-3.56 275.13-3.56L275.13-3.56Q274.1-3.56 273.05-3.54 272-3.52 270.98-3.61L270.98-3.61Q270.59-4.2 270.22-4.86 269.86-5.52 269.46-6.2L269.46-6.2 266.93-10.5Q264.73-14.16 262.56-17.82 260.38-21.48 257.89-25L257.89-25Q257.36-22.36 257.01-19.43 256.67-16.5 256.33-13.77L256.33-13.77Q255.94-10.79 255.62-7.76 255.3-4.74 255.3-1.71L255.3-1.71Q255.3-1.42 255.3-0.83 255.3-0.24 255.55 0L255.55 0 246.61 0Q246.91-0.29 247.2-1.49 247.49-2.69 247.76-4.35 248.03-6.01 248.25-7.91 248.47-9.81 248.64-11.55 248.81-13.28 248.93-14.6 249.05-15.92 249.1-16.41L249.1-16.41Q249.45-20.21 249.86-24.12 250.28-28.03 250.28-31.84L250.28-31.84Q250.28-32.13 250.28-32.79 250.28-33.45 250.18-34.11 250.08-34.77 249.86-35.3 249.64-35.84 249.25-35.99L249.25-35.99 261.16-35.99Q260.92-35.84 260.92-35.5L260.92-35.5Q260.92-34.62 261.8-32.67 262.68-30.71 264.05-28.2 265.41-25.68 267.1-22.92 268.78-20.17 270.34-17.65 271.91-15.14 273.2-13.13 274.49-11.13 275.13-10.21L275.13-10.21Q275.71-11.13 277.01-13.13 278.3-15.14 279.89-17.65 281.48-20.17 283.14-22.95 284.8-25.73 286.16-28.22 287.53-30.71 288.41-32.67 289.29-34.62 289.29-35.5L289.29-35.5Q289.29-35.84 289.09-35.99L289.09-35.99 301.01-35.99Q300.57-35.84 300.35-35.3 300.13-34.77 300.03-34.11 299.93-33.45 299.93-32.79 299.93-32.13 299.93-31.84L299.93-31.84Q299.93-28.03 300.35-24.12 300.76-20.21 301.15-16.41L301.15-16.41Q301.2-15.92 301.3-14.6 301.4-13.28 301.57-11.55 301.74-9.81 301.96-7.91 302.18-6.01 302.45-4.35 302.72-2.69 303.01-1.49 303.3-0.29 303.64 0L303.64 0 294.71 0Z" opacity="1" transform="matrix(1,0,0,1,0,0)" fill="black" class="wordmark-text-0" id="SvgjsPath1987"></path></svg></g></svg></g><g transform="matrix(1,0,0,1,0,35.5004720279627)"><svg viewBox="0 0 244.43135999999998 17.74914464262792" height="17.74914464262792" width="244.43135999999998"><g transform="matrix(1,0,0,1,0,0)"><svg width="244.43135999999998" viewBox="1.95 -34.2 486.82 35.35" height="17.74914464262792" data-palette-color="url(#bc149d6e-7490-457d-8d22-12fd0e15b87b)"><path d="M21.85-15.65L11.45-15.65 11.45-1.65 15.8-1.2 15.8 0 1.95 0 1.95-1.2 6.3-1.65 6.3-31.7 1.95-32.3 1.95-33.4 26.2-33.4 26.25-26.3 24.95-26.3 23.25-31.6 11.45-31.75 11.45-17.45 21.85-17.45 23.4-21.15 24.4-21.15 24.4-11.85 23.35-11.85 21.85-15.65ZM69.04-1.2L69.04 0 55.54 0 55.54-1.05 59.44-1.65 55.04-13.15 43.79-13.15 39.59-2.5 44.04-1.2 44.04 0 33.59 0 33.59-1.2 37.39-2.5 49.69-33.4 52.14-33.4 65.19-1.65 69.04-1.2ZM44.49-15L54.29-15 49.39-27.15 44.49-15ZM98.44-26.05L96.74-31.75Q94.04-32.7 91.19-32.7 88.34-32.7 86.19-31.08 84.04-29.45 84.04-26.25L84.04-26.25Q84.04-23.15 86.69-21.5L86.69-21.5Q88.14-20.6 89.06-20.2 89.99-19.8 91.76-19.15 93.54-18.5 94.19-18.23 94.84-17.95 96.11-17.38 97.39-16.8 98.01-16.35 98.64-15.9 99.54-15.1 100.44-14.3 100.89-13.5L100.89-13.5Q101.99-11.45 101.99-9.05L101.99-9.05Q101.99-4.8 98.54-2.1 95.09 0.6 89.59 0.6L89.59 0.6Q85.39 0.6 81.74-0.8L81.74-0.8Q79.94-1.45 78.79-2.6 77.64-3.75 77.64-5.25L77.64-5.25Q77.64-7.7 81.19-8.6L81.19-8.6Q81.74-5.6 83.29-3.75 84.84-1.9 86.51-1.3 88.19-0.7 90.61-0.7 93.04-0.7 95.19-2.27 97.34-3.85 97.34-7.45L97.34-7.45Q97.34-10.2 94.84-11.95L94.84-11.95Q92.84-13.3 89.91-14.5 86.99-15.7 85.99-16.13 84.99-16.55 83.41-17.48 81.84-18.4 81.09-19.3L81.09-19.3Q79.14-21.65 79.14-24.7L79.14-24.7Q79.14-29.4 82.49-31.8 85.84-34.2 91.74-34.2L91.74-34.2Q95.29-34.2 99.99-33.4L99.99-33.4 99.99-26.05 98.44-26.05ZM150.58-1.2L150.58 0 136.73 0 136.73-1.2 141.08-1.65 141.08-16.5 123.33-16.5 123.33-1.65 127.68-1.2 127.68 0 113.83 0 113.83-1.2 118.18-1.65 118.18-31.75 113.83-32.2 113.83-33.4 127.68-33.4 127.68-32.2 123.33-31.75 123.33-18.3 141.08-18.3 141.08-31.75 136.73-32.2 136.73-33.4 150.58-33.4 150.58-32.2 146.23-31.75 146.23-1.65 150.58-1.2ZM176.07-1.2L176.07 0 162.22 0 162.22-1.2 166.57-1.65 166.57-31.75 162.22-32.2 162.22-33.4 176.07-33.4 176.07-32.2 171.72-31.75 171.72-1.65 176.07-1.2ZM221.37-16.8Q221.37-9.3 216.82-4.38 212.27 0.55 204.62 0.55 196.97 0.55 192.39-4.38 187.82-9.3 187.82-16.8 187.82-24.3 192.39-29.23 196.97-34.15 204.62-34.15 212.27-34.15 216.82-29.23 221.37-24.3 221.37-16.8ZM204.67-1L204.67-1Q215.27-1 215.27-16.8L215.27-16.8Q215.27-24.4 212.84-28.5 210.42-32.6 204.62-32.6 198.82-32.6 196.37-28.53 193.92-24.45 193.92-16.8L193.92-16.8Q193.92-1 204.67-1ZM258.61-32.2L258.61-33.4 268.71-33.4 268.71-32.2 265.21-31.05 265.21 0 262.46 0 239.56-27.45 239.56-2.45 243.71-1.2 243.71 0 233.41 0 233.41-1.2 237.41-2.45 237.41-31.75 233.06-32.25 233.06-33.4 241.26-33.4 262.46-7.75 262.46-31.05 258.61-32.2ZM322-26.05L320.3-31.75Q317.6-32.7 314.75-32.7 311.9-32.7 309.75-31.08 307.6-29.45 307.6-26.25L307.6-26.25Q307.6-23.15 310.25-21.5L310.25-21.5Q311.7-20.6 312.62-20.2 313.55-19.8 315.32-19.15 317.1-18.5 317.75-18.23 318.4-17.95 319.67-17.38 320.95-16.8 321.57-16.35 322.2-15.9 323.1-15.1 324-14.3 324.45-13.5L324.45-13.5Q325.55-11.45 325.55-9.05L325.55-9.05Q325.55-4.8 322.1-2.1 318.65 0.6 313.15 0.6L313.15 0.6Q308.95 0.6 305.3-0.8L305.3-0.8Q303.5-1.45 302.35-2.6 301.2-3.75 301.2-5.25L301.2-5.25Q301.2-7.7 304.75-8.6L304.75-8.6Q305.3-5.6 306.85-3.75 308.4-1.9 310.07-1.3 311.75-0.7 314.17-0.7 316.6-0.7 318.75-2.27 320.9-3.85 320.9-7.45L320.9-7.45Q320.9-10.2 318.4-11.95L318.4-11.95Q316.4-13.3 313.47-14.5 310.55-15.7 309.55-16.13 308.55-16.55 306.97-17.48 305.4-18.4 304.65-19.3L304.65-19.3Q302.7-21.65 302.7-24.7L302.7-24.7Q302.7-29.4 306.05-31.8 309.4-34.2 315.3-34.2L315.3-34.2Q318.85-34.2 323.55-33.4L323.55-33.4 323.55-26.05 322-26.05ZM365.69-33.35L365.69-25.8 364.19-25.8 362.49-31.55 353.64-31.65 353.64-1.65 358.29-1.2 358.29 0 343.84 0 343.84-1.2 348.49-1.65 348.49-31.65 339.64-31.55 337.94-25.8 336.49-25.8 336.49-33.35 351.09-33.45 365.69-33.35ZM410.23-16.8Q410.23-9.3 405.68-4.38 401.13 0.55 393.48 0.55 385.83 0.55 381.26-4.38 376.68-9.3 376.68-16.8 376.68-24.3 381.26-29.23 385.83-34.15 393.48-34.15 401.13-34.15 405.68-29.23 410.23-24.3 410.23-16.8ZM393.53-1L393.53-1Q404.13-1 404.13-16.8L404.13-16.8Q404.13-24.4 401.71-28.5 399.28-32.6 393.48-32.6 387.68-32.6 385.23-28.53 382.78-24.45 382.78-16.8L382.78-16.8Q382.78-1 393.53-1ZM431.33-31.95L431.33-17.6 433.83-17.6Q442.78-17.6 442.78-25.1L442.78-25.1Q442.78-28.8 441.03-30.48 439.28-32.15 435.43-32.15L435.43-32.15Q433.93-32.15 431.33-31.95L431.33-31.95ZM428.68-33.5L431.23-33.5 436.93-33.65Q448.28-33.65 448.28-25.1L448.28-25.1Q448.28-21.4 445.75-19.03 443.23-16.65 439.23-16.65L439.23-16.65Q438.88-16.65 437.98-16.75L437.98-16.75 437.98-16.65Q443.33-15.9 445.35-13.18 447.38-10.45 447.38-4.85L447.38-4.85Q447.38-1.35 448.68-0.8L448.68-0.8Q449.28-0.4 450.35-0.4 451.43-0.4 453.13-1.05L453.13-1.05 453.13 0.2Q450.48 1.15 448.28 1.15L448.28 1.15Q443.38 1.15 442.23-3.05L442.23-3.05Q441.93-4.15 441.9-6.15 441.88-8.15 441.73-9.7 441.58-11.25 441.03-12.8L441.03-12.8Q439.78-16.15 434.13-16.15L434.13-16.15 431.33-16.15 431.33-1.45 435.18-1.1 435.18 0 422.43 0 422.43-1.05 426.18-1.45 426.18-31.85 421.83-32.35 421.83-33.65Q425.03-33.5 428.68-33.5L428.68-33.5ZM488.17 0L462.62 0 462.62-1.2 466.97-1.65 466.97-31.75 462.62-32.3 462.62-33.4 486.57-33.4 486.62-26.3 485.32-26.3 483.62-31.6 472.12-31.75 472.12-18.3 482.22-18.3 483.77-22 484.77-22 484.77-12.7 483.72-12.7 482.22-16.5 472.12-16.5 472.12-1.6 485.12-1.75 487.47-7.45 488.77-7.45 488.17 0Z" opacity="1" transform="matrix(1,0,0,1,0,0)" fill="black" class="slogan-text-1" id="SvgjsPath1986"></path></svg></g></svg></g></svg></g></svg></g></svg></g></svg></g></svg></g><path d="M199.424 90.975L199.424 26.611 393.402 26.611 393.402 220.589 199.424 220.589 199.424 156.225 202.014 156.225 202.014 217.999 390.812 217.999 390.812 29.201 202.014 29.201 202.014 90.975Z" fill="black" stroke="transparent"></path></svg></g><defs><mask></mask></defs></svg><rect width="395.52" height="247.2" fill="black" stroke="none" visibility="hidden"></rect></g></mask></svg><rect width="395.52" height="247.2" fill="black" stroke="none" visibility="hidden"></rect></g></mask></svg><rect width="395.52" height="247.2" fill="black" stroke="none" visibility="hidden"></rect></g></mask><linearGradient x1="0" x2="1" y1="0.5" y2="0.5" id="2b9b40af-c1f4-4ba5-bf73-c3f13fd477cb"><stop stop-color="#ffa62e" offset="0"></stop><stop stop-color="#f71b3d" offset="1"></stop></linearGradient></svg><rect width="395.52" height="247.2" fill="none" stroke="none" visibility="hidden"></rect></g></svg></g></svg>